<svg height="110" viewBox="0 0 110 110" width="110" xmlns="http://www.w3.org/2000/svg" xmlns:xlink="http://www.w3.org/1999/xlink"><defs><path id="a" d="m57.000025 1.999987c30.375643 0 54.999925 24.624395 54.999925 55.000038s-24.624282 54.999925-54.999925 54.999925-55.000038-24.624282-55.000038-54.999925 24.624395-55.000038 55.000038-55.000038z"/><filter id="b" height="175.2%" width="175.2%" x="-37.6%" y="-37.6%"><feGaussianBlur in="SourceAlpha" result="shadowBlurInner1" stdDeviation="30"/><feOffset dx="0" dy="-25" in="shadowBlurInner1" result="shadowOffsetInner1"/><feComposite in="shadowOffsetInner1" in2="SourceAlpha" k2="-1" k3="1" operator="arithmetic" result="shadowInnerInner1"/><feColorMatrix in="shadowInnerInner1" result="shadowMatrixInner1" type="matrix" values="0 0 0 0 0.8980392   0 0 0 0 0.25490198   0 0 0 0 0.015686275  0 0 0 1 0"/><feOffset dx="0" dy="0" in="SourceAlpha" result="shadowOffsetInner2"/><feComposite in="shadowOffsetInner2" in2="SourceAlpha" k2="-1" k3="1" operator="arithmetic" result="shadowInnerInner2"/><feColorMatrix in="shadowInnerInner2" result="shadowMatrixInner2" type="matrix" values="0 0 0 0 0   0 0 0 0 0   0 0 0 0 0  0 0 0 0.5 0"/><feMerge><feMergeNode in="shadowMatrixInner1"/><feMergeNode in="shadowMatrixInner2"/></feMerge></filter><linearGradient id="c" x1="50%" x2="50%" y1="25.073014%" y2="-43.596671%"><stop offset="0" stop-color="#fff" stop-opacity="0"/><stop offset="1" stop-color="#fff"/></linearGradient><linearGradient id="d" x1="50%" x2="50%" y1="0%" y2="50%"><stop offset="0" stop-color="#fff"/><stop offset="1" stop-color="#fff" stop-opacity="0"/></linearGradient><path id="e" d="m56.999935 6.999937c27.6143 0 50.000114 23.281274 50.000114 52.000074s-22.385814 51.999967-50.000114 51.999967c-27.614094 0-49.999908-23.281167-49.999908-51.999967s22.385814-52.000074 49.999908-52.000074z"/><path id="f" d="m57.000083 79.999897c6.44985 0 14.999985 7.885909 14.999985 11.942653 0 1.063826-.999999.995282-.999999.995282s-7.40817-4.976189-13.999986-4.976189v.03825c-6.591915 0-13.999953 4.999989-13.999953 4.999989s-1.000032.069037-1.000032-.999889c0-4.076226 8.550036-12.000096 14.999985-12.000096z"/><filter id="g" height="123.5%" width="112.1%" x="-6.1%" y="-5.9%"><feOffset dx="0" dy="1" in="SourceAlpha" result="shadowOffsetOuter1"/><feGaussianBlur in="shadowOffsetOuter1" result="shadowBlurOuter1" stdDeviation=".5"/><feColorMatrix in="shadowBlurOuter1" type="matrix" values="0 0 0 0 1   0 0 0 0 1   0 0 0 0 1  0 0 0 1 0"/></filter><filter id="h" height="153.5%" width="127.6%" x="-13.8%" y="-20.9%"><feMorphology in="SourceAlpha" operator="erode" radius="0.5" result="shadowSpreadInner1"/><feGaussianBlur in="shadowSpreadInner1" result="shadowBlurInner1" stdDeviation="2.3"/><feOffset dx="0" dy="2" in="shadowBlurInner1" result="shadowOffsetInner1"/><feComposite in="shadowOffsetInner1" in2="SourceAlpha" k2="-1" k3="1" operator="arithmetic" result="shadowInnerInner1"/><feColorMatrix in="shadowInnerInner1" result="shadowMatrixInner1" type="matrix" values="0 0 0 0 0   0 0 0 0 0   0 0 0 0 0  0 0 0 1 0"/><feGaussianBlur in="SourceAlpha" result="shadowBlurInner2" stdDeviation="1.5"/><feOffset dx="0" dy="0" in="shadowBlurInner2" result="shadowOffsetInner2"/><feComposite in="shadowOffsetInner2" in2="SourceAlpha" k2="-1" k3="1" operator="arithmetic" result="shadowInnerInner2"/><feColorMatrix in="shadowInnerInner2" result="shadowMatrixInner2" type="matrix" values="0 0 0 0 0   0 0 0 0 0   0 0 0 0 0  0 0 0 0.75 0"/><feMerge><feMergeNode in="shadowMatrixInner1"/><feMergeNode in="shadowMatrixInner2"/></feMerge></filter><path id="i" d="m68.031499 58.9030024c-1.7369615 1.5944056-2.824737 2.8818176-2.824737 2.8818176s-.498758.488208-.99021 0c-.491426-.487984 0-1.966748 0-1.966748s3.722472-10.818052 16.83266-10.818052c5.271682 0 4.950712 1.966972 4.950712 1.966972s-.083746 1.418256-6.930976 1.966748c-3.3778284.270675-6.7964743 2.4282747-9.393645 4.5452387.5709897-.3102342 1.185099-.4789667 1.824707-.4789667 3.037554 0 5.500014 3.805564 5.500014 8.499988 0 4.694452-2.46246 8.500016-5.500014 8.500016s-5.500014-3.805564-5.500014-8.500016c0-2.6621527.7919003-5.0384578 2.031503-6.5969976z"/><filter id="j" height="114.3%" width="115.4%" x="-7.7%" y="-3.6%"><feOffset dx="0" dy="1" in="SourceAlpha" result="shadowOffsetOuter1"/><feGaussianBlur in="shadowOffsetOuter1" result="shadowBlurOuter1" stdDeviation=".5"/><feColorMatrix in="shadowBlurOuter1" type="matrix" values="0 0 0 0 1   0 0 0 0 1   0 0 0 0 1  0 0 0 1 0"/></filter><filter id="k" height="132.5%" width="135%" x="-17.5%" y="-12.7%"><feMorphology in="SourceAlpha" operator="erode" radius="0.5" result="shadowSpreadInner1"/><feGaussianBlur in="shadowSpreadInner1" result="shadowBlurInner1" stdDeviation="2.3"/><feOffset dx="0" dy="2" in="shadowBlurInner1" result="shadowOffsetInner1"/><feComposite in="shadowOffsetInner1" in2="SourceAlpha" k2="-1" k3="1" operator="arithmetic" result="shadowInnerInner1"/><feColorMatrix in="shadowInnerInner1" result="shadowMatrixInner1" type="matrix" values="0 0 0 0 0   0 0 0 0 0   0 0 0 0 0  0 0 0 1 0"/><feGaussianBlur in="SourceAlpha" result="shadowBlurInner2" stdDeviation="1.5"/><feOffset dx="0" dy="0" in="shadowBlurInner2" result="shadowOffsetInner2"/><feComposite in="shadowOffsetInner2" in2="SourceAlpha" k2="-1" k3="1" operator="arithmetic" result="shadowInnerInner2"/><feColorMatrix in="shadowInnerInner2" result="shadowMatrixInner2" type="matrix" values="0 0 0 0 0   0 0 0 0 0   0 0 0 0 0  0 0 0 0.75 0"/><feMerge><feMergeNode in="shadowMatrixInner1"/><feMergeNode in="shadowMatrixInner2"/></feMerge></filter><path id="l" d="m44.32462 57.478915c-2.5971355-2.1169436-6.0157214-4.2745027-9.393516-4.545175-6.84723-.548492-6.931106-1.966748-6.931106-1.966748s-.320944-1.966972 4.950738-1.966972c13.110292 0 16.832634 10.818052 16.832634 10.818052s.491452 1.478764 0 1.966748c-.491426.488208-.990184 0-.990184 0s-1.087718-1.2873631-2.8246023-2.8817267c1.2395323 1.5585413 2.0313683 3.9348057 2.0313683 6.5969067 0 4.694452-2.462356 8.500016-5.49991 8.500016-3.037658 0-5.500014-3.805564-5.500014-8.500016 0-4.694424 2.462356-8.499988 5.500014-8.499988.6395643 0 1.2536287.1687094 1.824578.478903z"/><filter id="m" height="114.3%" width="115.4%" x="-7.7%" y="-3.6%"><feOffset dx="0" dy="1" in="SourceAlpha" result="shadowOffsetOuter1"/><feGaussianBlur in="shadowOffsetOuter1" result="shadowBlurOuter1" stdDeviation=".5"/><feColorMatrix in="shadowBlurOuter1" type="matrix" values="0 0 0 0 1   0 0 0 0 1   0 0 0 0 1  0 0 0 1 0"/></filter><filter id="n" height="132.5%" width="135%" x="-17.5%" y="-12.7%"><feMorphology in="SourceAlpha" operator="erode" radius="0.5" result="shadowSpreadInner1"/><feGaussianBlur in="shadowSpreadInner1" result="shadowBlurInner1" stdDeviation="2.3"/><feOffset dx="0" dy="2" in="shadowBlurInner1" result="shadowOffsetInner1"/><feComposite in="shadowOffsetInner1" in2="SourceAlpha" k2="-1" k3="1" operator="arithmetic" result="shadowInnerInner1"/><feColorMatrix in="shadowInnerInner1" result="shadowMatrixInner1" type="matrix" values="0 0 0 0 0   0 0 0 0 0   0 0 0 0 0  0 0 0 1 0"/><feGaussianBlur in="SourceAlpha" result="shadowBlurInner2" stdDeviation="1.5"/><feOffset dx="0" dy="0" in="shadowBlurInner2" result="shadowOffsetInner2"/><feComposite in="shadowOffsetInner2" in2="SourceAlpha" k2="-1" k3="1" operator="arithmetic" result="shadowInnerInner2"/><feColorMatrix in="shadowInnerInner2" result="shadowMatrixInner2" type="matrix" values="0 0 0 0 0   0 0 0 0 0   0 0 0 0 0  0 0 0 0.75 0"/><feMerge><feMergeNode in="shadowMatrixInner1"/><feMergeNode in="shadowMatrixInner2"/></feMerge></filter></defs><g fill="none" fill-rule="evenodd" transform="translate(-2 -2)"><g><use fill="#f97d1d" fill-rule="evenodd" xlink:href="#a"/><use fill="#000" filter="url(#b)" xlink:href="#a"/></g><g><use fill="url(#c)" xlink:href="#e"/><use fill="url(#d)" fill-opacity=".9" xlink:href="#e"/></g><g><use fill="#000" filter="url(#g)" xlink:href="#f"/><use fill="#772806" fill-rule="evenodd" xlink:href="#f"/><use fill="#000" filter="url(#h)" xlink:href="#f"/></g><g><use fill="#000" filter="url(#j)" xlink:href="#i"/><use fill="#772806" fill-rule="evenodd" xlink:href="#i"/><use fill="#000" filter="url(#k)" xlink:href="#i"/></g><g><use fill="#000" filter="url(#m)" xlink:href="#l"/><use fill="#772806" fill-rule="evenodd" xlink:href="#l"/><use fill="#000" filter="url(#n)" xlink:href="#l"/></g></g></svg>