<svg height="110" viewBox="0 0 110 110" width="110" xmlns="http://www.w3.org/2000/svg" xmlns:xlink="http://www.w3.org/1999/xlink"><defs><linearGradient id="a"><stop offset="0" stop-color="#fff" stop-opacity="0"/><stop offset="1" stop-color="#fff"/></linearGradient><linearGradient id="b" x1="50%" x2="50%" xlink:href="#a" y1="100%" y2="0%"/><path id="c" d="m56 1.999987c30.375632 0 54.999952 24.624395 54.999952 55.000038s-24.62432 54.999925-54.999952 54.999925-54.999952-24.624282-54.999952-54.999925 24.62432-55.000038 54.999952-55.000038z"/><filter id="d" height="175.2%" width="175.9%" x="-37.9%" y="-37.6%"><feGaussianBlur in="SourceAlpha" result="shadowBlurInner1" stdDeviation="30"/><feOffset dx="0" dy="-25" in="shadowBlurInner1" result="shadowOffsetInner1"/><feComposite in="shadowOffsetInner1" in2="SourceAlpha" k2="-1" k3="1" operator="arithmetic" result="shadowInnerInner1"/><feColorMatrix in="shadowInnerInner1" result="shadowMatrixInner1" type="matrix" values="0 0 0 0 1   0 0 0 0 0.6039216   0 0 0 0 0  0 0 0 1 0"/><feMorphology in="SourceAlpha" operator="erode" radius="0.6" result="shadowSpreadInner2"/><feGaussianBlur in="shadowSpreadInner2" result="shadowBlurInner2" stdDeviation="2.7"/><feOffset dx="0" dy="2" in="shadowBlurInner2" result="shadowOffsetInner2"/><feComposite in="shadowOffsetInner2" in2="SourceAlpha" k2="-1" k3="1" operator="arithmetic" result="shadowInnerInner2"/><feColorMatrix in="shadowInnerInner2" result="shadowMatrixInner2" type="matrix" values="0 0 0 0 0   0 0 0 0 0   0 0 0 0 0  0 0 0 0.4 0"/><feMorphology in="SourceAlpha" operator="erode" radius="3.9" result="shadowSpreadInner3"/><feGaussianBlur in="shadowSpreadInner3" result="shadowBlurInner3" stdDeviation="4.55"/><feOffset dx="0" dy="0" in="shadowBlurInner3" result="shadowOffsetInner3"/><feComposite in="shadowOffsetInner3" in2="SourceAlpha" k2="-1" k3="1" operator="arithmetic" result="shadowInnerInner3"/><feColorMatrix in="shadowInnerInner3" result="shadowMatrixInner3" type="matrix" values="0 0 0 0 0   0 0 0 0 0   0 0 0 0 0  0 0 0 0.5 0"/><feGaussianBlur in="SourceAlpha" result="shadowBlurInner4" stdDeviation="7.5"/><feOffset dx="0" dy="-8" in="shadowBlurInner4" result="shadowOffsetInner4"/><feComposite in="shadowOffsetInner4" in2="SourceAlpha" k2="-1" k3="1" operator="arithmetic" result="shadowInnerInner4"/><feColorMatrix in="shadowInnerInner4" result="shadowMatrixInner4" type="matrix" values="0 0 0 0 0.6509804   0 0 0 0 0.40392157   0 0 0 0 0.02745098  0 0 0 0.5 0"/><feOffset dx="0" dy="-1" in="SourceAlpha" result="shadowOffsetInner5"/><feComposite in="shadowOffsetInner5" in2="SourceAlpha" k2="-1" k3="1" operator="arithmetic" result="shadowInnerInner5"/><feColorMatrix in="shadowInnerInner5" result="shadowMatrixInner5" type="matrix" values="0 0 0 0 0.70980394   0 0 0 0 0.3647059   0 0 0 0 0.019607844  0 0 0 1 0"/><feGaussianBlur in="SourceAlpha" result="shadowBlurInner6" stdDeviation=".5"/><feOffset dx="0" dy="1" in="shadowBlurInner6" result="shadowOffsetInner6"/><feComposite in="shadowOffsetInner6" in2="SourceAlpha" k2="-1" k3="1" operator="arithmetic" result="shadowInnerInner6"/><feColorMatrix in="shadowInnerInner6" result="shadowMatrixInner6" type="matrix" values="0 0 0 0 0   0 0 0 0 0   0 0 0 0 0  0 0 0 1 0"/><feMerge><feMergeNode in="shadowMatrixInner1"/><feMergeNode in="shadowMatrixInner2"/><feMergeNode in="shadowMatrixInner3"/><feMergeNode in="shadowMatrixInner4"/><feMergeNode in="shadowMatrixInner5"/><feMergeNode in="shadowMatrixInner6"/></feMerge></filter><linearGradient id="e" x1="50%" x2="50%" xlink:href="#a" y1="25.073014%" y2="-43.596671%"/><linearGradient id="f" x1="50%" x2="50%" y1="0%" y2="50%"><stop offset="0" stop-color="#fff"/><stop offset="1" stop-color="#fff" stop-opacity="0"/></linearGradient><path id="g" d="m56 6.999937c27.614184 0 50.00008 23.281274 50.00008 52.000074s-22.385896 51.999967-50.00008 51.999967-50.00008-23.281167-50.00008-51.999967 22.385896-52.000074 50.00008-52.000074z"/><path id="h" d="m56.029725 69.999988c17.68935 0 26.68935-3.925362 33.959625-6.004418 1.960125 0 2.0106 1.376284 2.0106 3.004318 0 8.328194-4.153275 15.38924-10.9908 22.000176-6.443775 6.230024-15.28035 9.99989-24.979425 9.99989 0-.015712-.0106031-.028187-.029625-.0379253v.0379253s-.2401014-.0366241-.4850012-.056034c-.2447345.0194099-.4846738.056034-.4846738.056034v-.0382576c-.0194461.0097863-.0303.0223663-.0303.0382576-9.7071 0-18.551025-3.769866-25.00005-9.99989-6.843-6.610936-11.000025-13.671982-11.000025-22.000176 0-1.628034.0507-3.004318 2.01225-3.004318 7.27635 2.079056 16.28355 6.004418 33.987825 6.004418 3.6637553 0 1.3255767 0 1.0296 0z"/><filter id="i" height="110.5%" width="105.3%" x="-2.7%" y="-2.6%"><feOffset dx="0" dy="1" in="SourceAlpha" result="shadowOffsetOuter1"/><feGaussianBlur in="shadowOffsetOuter1" result="shadowBlurOuter1" stdDeviation=".5"/><feColorMatrix in="shadowBlurOuter1" type="matrix" values="0 0 0 0 1   0 0 0 0 1   0 0 0 0 1  0 0 0 0.4 0"/></filter><filter id="j" height="123.9%" width="112.1%" x="-6.1%" y="-9.3%"><feMorphology in="SourceAlpha" operator="erode" radius="0.5" result="shadowSpreadInner1"/><feGaussianBlur in="shadowSpreadInner1" result="shadowBlurInner1" stdDeviation="2.3"/><feOffset dx="0" dy="2" in="shadowBlurInner1" result="shadowOffsetInner1"/><feComposite in="shadowOffsetInner1" in2="SourceAlpha" k2="-1" k3="1" operator="arithmetic" result="shadowInnerInner1"/><feColorMatrix in="shadowInnerInner1" result="shadowMatrixInner1" type="matrix" values="0 0 0 0 0   0 0 0 0 0   0 0 0 0 0  0 0 0 1 0"/><feGaussianBlur in="SourceAlpha" result="shadowBlurInner2" stdDeviation="1.5"/><feOffset dx="0" dy="0" in="shadowBlurInner2" result="shadowOffsetInner2"/><feComposite in="shadowOffsetInner2" in2="SourceAlpha" k2="-1" k3="1" operator="arithmetic" result="shadowInnerInner2"/><feColorMatrix in="shadowInnerInner2" result="shadowMatrixInner2" type="matrix" values="0 0 0 0 0   0 0 0 0 0   0 0 0 0 0  0 0 0 0.75 0"/><feMerge><feMergeNode in="shadowMatrixInner1"/><feMergeNode in="shadowMatrixInner2"/></feMerge></filter><linearGradient id="k" x1="0%" x2="100%" y1="50%" y2="57.886951%"><stop offset="0" stop-color="#c7cacd"/><stop offset=".430604273" stop-color="#fff"/><stop offset="1" stop-color="#c7cacd"/></linearGradient><path id="l" d="m83.964373 81.087898c-1.431694 1.974924-3.106704 3.895652-5.051816 5.769273-5.914337 5.696207-14.024536 9.142804-22.926574 9.142804 0-.006494-.023128-.005712-.026963-.011016v.011016s-.220896-.03315-.445214-.050847c-.224259.017697-.444801.050847-.444801.050847v-.011424c-.004071.005423-.027907.004726-.027907.011424-8.909236 0-17.026279-3.446597-22.945277-9.142804-1.932191-1.859562-3.597466-3.765636-5.023909-5.724818 5.639869 1.566295 17.892222 3.867619 27.928181 3.867619 9.989644 0 23.083514-2.345286 28.96428-3.912074z"/><filter id="m" height="113.2%" width="104.2%" x="-2.1%" y="-1.5%"><feMorphology in="SourceAlpha" operator="dilate" radius="0.1" result="shadowSpreadOuter1"/><feOffset dx="0" dy="1" in="shadowSpreadOuter1" result="shadowOffsetOuter1"/><feGaussianBlur in="shadowOffsetOuter1" result="shadowBlurOuter1" stdDeviation=".4"/><feColorMatrix in="shadowBlurOuter1" type="matrix" values="0 0 0 0 0   0 0 0 0 0   0 0 0 0 0  0 0 0 1 0"/></filter><filter id="n" height="119.1%" width="105.9%" x="-2.9%" y="-4.4%"><feMorphology in="SourceAlpha" operator="erode" radius="0.5" result="shadowSpreadInner1"/><feGaussianBlur in="shadowSpreadInner1" result="shadowBlurInner1" stdDeviation="1.25"/><feOffset dx="0" dy="0" in="shadowBlurInner1" result="shadowOffsetInner1"/><feComposite in="shadowOffsetInner1" in2="SourceAlpha" k2="-1" k3="1" operator="arithmetic" result="shadowInnerInner1"/><feColorMatrix in="shadowInnerInner1" type="matrix" values="0 0 0 0 1   0 0 0 0 1   0 0 0 0 1  0 0 0 0.2 0"/></filter><path id="o" d="m55.000089 81.499988c0-1.844622.499911-5.544648.499911-8.499996 16.9435901-.0659707 31.4618472-3.4254328 34.000054-6.000102 0 3.981906-1.384571 8.397324-2.471794 9.500094-1.087365 1.10277-19.161409 5.000004-32.028171 5.000004-13.050652 0-29.897319-3.897234-31.000091-5.000004-1.102843-1.10277-2.499839-5.53815-2.499839-9.500094 2.5871203 2.587374 16.4621368 5.9673053 33.7481457 5.9998649z"/><filter id="p" height="131.3%" width="105.9%" x="-2.9%" y="-10.6%"><feMorphology in="SourceAlpha" operator="dilate" radius="0.1" result="shadowSpreadOuter1"/><feOffset dx="0" dy="1" in="shadowSpreadOuter1" result="shadowOffsetOuter1"/><feGaussianBlur in="shadowOffsetOuter1" result="shadowBlurOuter1" stdDeviation=".4"/><feColorMatrix in="shadowBlurOuter1" type="matrix" values="0 0 0 0 0   0 0 0 0 0   0 0 0 0 0  0 0 0 1 0"/></filter><filter id="q" height="138.2%" width="107.4%" x="-3.7%" y="-14.1%"><feMorphology in="SourceAlpha" operator="erode" radius="0.5" result="shadowSpreadInner1"/><feGaussianBlur in="shadowSpreadInner1" result="shadowBlurInner1" stdDeviation="1.25"/><feOffset dx="0" dy="0" in="shadowBlurInner1" result="shadowOffsetInner1"/><feComposite in="shadowOffsetInner1" in2="SourceAlpha" k2="-1" k3="1" operator="arithmetic" result="shadowInnerInner1"/><feColorMatrix in="shadowInnerInner1" type="matrix" values="0 0 0 0 1   0 0 0 0 1   0 0 0 0 1  0 0 0 0.2 0"/></filter><path id="r" d="m46.875033 55.853164c-.543921-.992816-2.149791-6.451984-6.37497-6.451984-4.22541 0-5.83128 5.459168-6.375075 6.451984-.543921.992926-2.512209 1.989592-2.512209 0 0-16.097532 6.118224-17.853132 8.887284-17.853132 2.768934 0 8.829051 1.7556 8.829051 17.897198 0 1.98968-1.910286.94886-2.454081-.044066z"/><filter id="s" height="118.2%" width="119%" x="-9.5%" y="-4.5%"><feOffset dx="0" dy="1" in="SourceAlpha" result="shadowOffsetOuter1"/><feGaussianBlur in="shadowOffsetOuter1" result="shadowBlurOuter1" stdDeviation=".5"/><feColorMatrix in="shadowBlurOuter1" type="matrix" values="0 0 0 0 1   0 0 0 0 1   0 0 0 0 1  0 0 0 1 0"/></filter><filter id="t" height="141.4%" width="143.3%" x="-21.7%" y="-16.1%"><feMorphology in="SourceAlpha" operator="erode" radius="0.5" result="shadowSpreadInner1"/><feGaussianBlur in="shadowSpreadInner1" result="shadowBlurInner1" stdDeviation="2.3"/><feOffset dx="0" dy="2" in="shadowBlurInner1" result="shadowOffsetInner1"/><feComposite in="shadowOffsetInner1" in2="SourceAlpha" k2="-1" k3="1" operator="arithmetic" result="shadowInnerInner1"/><feColorMatrix in="shadowInnerInner1" result="shadowMatrixInner1" type="matrix" values="0 0 0 0 0   0 0 0 0 0   0 0 0 0 0  0 0 0 1 0"/><feGaussianBlur in="SourceAlpha" result="shadowBlurInner2" stdDeviation="1.5"/><feOffset dx="0" dy="0" in="shadowBlurInner2" result="shadowOffsetInner2"/><feComposite in="shadowOffsetInner2" in2="SourceAlpha" k2="-1" k3="1" operator="arithmetic" result="shadowInnerInner2"/><feColorMatrix in="shadowInnerInner2" result="shadowMatrixInner2" type="matrix" values="0 0 0 0 0   0 0 0 0 0   0 0 0 0 0  0 0 0 0.75 0"/><feMerge><feMergeNode in="shadowMatrixInner1"/><feMergeNode in="shadowMatrixInner2"/></feMerge></filter><path id="u" d="m77.875012 55.853164c-.543795-.992816-2.149665-6.451984-6.374949-6.451984-4.225431 0-5.831301 5.459168-6.375096 6.451984-.543795.992926-2.512188 1.989592-2.512188 0 0-16.097532 6.118224-17.853132 8.887284-17.853132 2.768934 0 8.829051 1.7556 8.829051 17.897198 0 1.98968-1.910307.94886-2.454102-.044066z"/><filter id="v" height="118.2%" width="119%" x="-9.5%" y="-4.5%"><feOffset dx="0" dy="1" in="SourceAlpha" result="shadowOffsetOuter1"/><feGaussianBlur in="shadowOffsetOuter1" result="shadowBlurOuter1" stdDeviation=".5"/><feColorMatrix in="shadowBlurOuter1" type="matrix" values="0 0 0 0 1   0 0 0 0 1   0 0 0 0 1  0 0 0 1 0"/></filter><filter id="w" height="141.4%" width="143.3%" x="-21.7%" y="-16.1%"><feMorphology in="SourceAlpha" operator="erode" radius="0.5" result="shadowSpreadInner1"/><feGaussianBlur in="shadowSpreadInner1" result="shadowBlurInner1" stdDeviation="2.3"/><feOffset dx="0" dy="2" in="shadowBlurInner1" result="shadowOffsetInner1"/><feComposite in="shadowOffsetInner1" in2="SourceAlpha" k2="-1" k3="1" operator="arithmetic" result="shadowInnerInner1"/><feColorMatrix in="shadowInnerInner1" result="shadowMatrixInner1" type="matrix" values="0 0 0 0 0   0 0 0 0 0   0 0 0 0 0  0 0 0 1 0"/><feGaussianBlur in="SourceAlpha" result="shadowBlurInner2" stdDeviation="1.5"/><feOffset dx="0" dy="0" in="shadowBlurInner2" result="shadowOffsetInner2"/><feComposite in="shadowOffsetInner2" in2="SourceAlpha" k2="-1" k3="1" operator="arithmetic" result="shadowInnerInner2"/><feColorMatrix in="shadowInnerInner2" result="shadowMatrixInner2" type="matrix" values="0 0 0 0 0   0 0 0 0 0   0 0 0 0 0  0 0 0 0.75 0"/><feMerge><feMergeNode in="shadowMatrixInner1"/><feMergeNode in="shadowMatrixInner2"/></feMerge></filter></defs><g fill="none" fill-rule="evenodd" transform="translate(-1 -2)"><g><use fill="#ffee40" fill-rule="evenodd" xlink:href="#c"/><use fill="url(#b)" fill-rule="evenodd" xlink:href="#c"/><use fill="#000" filter="url(#d)" xlink:href="#c"/></g><g><use fill="url(#e)" xlink:href="#g"/><use fill="url(#f)" xlink:href="#g"/></g><g><use fill="#000" filter="url(#i)" xlink:href="#h"/><use fill="#a66707" fill-rule="evenodd" xlink:href="#h"/><use fill="#000" filter="url(#j)" xlink:href="#h"/></g><g><use fill="#000" filter="url(#m)" xlink:href="#l"/><use fill="#fff" fill-rule="evenodd" xlink:href="#l"/><use fill="url(#k)" fill-rule="evenodd" xlink:href="#l"/><use fill="#000" filter="url(#n)" xlink:href="#l"/></g><g><use fill="#000" filter="url(#p)" xlink:href="#o"/><use fill="#fff" fill-rule="evenodd" xlink:href="#o"/><use fill="url(#k)" fill-rule="evenodd" xlink:href="#o"/><use fill="#000" filter="url(#q)" xlink:href="#o"/></g><g><use fill="#000" filter="url(#s)" xlink:href="#r"/><use fill="#a66707" fill-rule="evenodd" xlink:href="#r"/><use fill="#000" filter="url(#t)" xlink:href="#r"/></g><g><use fill="#000" filter="url(#v)" xlink:href="#u"/><use fill="#a66707" fill-rule="evenodd" xlink:href="#u"/><use fill="#000" filter="url(#w)" xlink:href="#u"/></g></g></svg>