<svg height="110" viewBox="0 0 110 110" width="110" xmlns="http://www.w3.org/2000/svg" xmlns:xlink="http://www.w3.org/1999/xlink"><defs><linearGradient id="a"><stop offset="0" stop-color="#fff" stop-opacity="0"/><stop offset="1" stop-color="#fff"/></linearGradient><linearGradient id="b" x1="50%" x2="50%" xlink:href="#a" y1="100%" y2="0%"/><path id="c" d="m56.999912 1.999987c30.375756 0 55.000038 24.624395 55.000038 55.000038s-24.624282 54.999925-55.000038 54.999925c-30.37553 0-54.999925-24.624282-54.999925-54.999925s24.624395-55.000038 54.999925-55.000038z"/><filter id="d" height="175.2%" width="175.2%" x="-37.6%" y="-37.6%"><feGaussianBlur in="SourceAlpha" result="shadowBlurInner1" stdDeviation="30"/><feOffset dx="0" dy="-25" in="shadowBlurInner1" result="shadowOffsetInner1"/><feComposite in="shadowOffsetInner1" in2="SourceAlpha" k2="-1" k3="1" operator="arithmetic" result="shadowInnerInner1"/><feColorMatrix in="shadowInnerInner1" result="shadowMatrixInner1" type="matrix" values="0 0 0 0 1   0 0 0 0 0.6039216   0 0 0 0 0  0 0 0 1 0"/><feMorphology in="SourceAlpha" operator="erode" radius="0.6" result="shadowSpreadInner2"/><feGaussianBlur in="shadowSpreadInner2" result="shadowBlurInner2" stdDeviation="2.7"/><feOffset dx="0" dy="2" in="shadowBlurInner2" result="shadowOffsetInner2"/><feComposite in="shadowOffsetInner2" in2="SourceAlpha" k2="-1" k3="1" operator="arithmetic" result="shadowInnerInner2"/><feColorMatrix in="shadowInnerInner2" result="shadowMatrixInner2" type="matrix" values="0 0 0 0 0   0 0 0 0 0   0 0 0 0 0  0 0 0 0.4 0"/><feMorphology in="SourceAlpha" operator="erode" radius="3.9" result="shadowSpreadInner3"/><feGaussianBlur in="shadowSpreadInner3" result="shadowBlurInner3" stdDeviation="4.55"/><feOffset dx="0" dy="0" in="shadowBlurInner3" result="shadowOffsetInner3"/><feComposite in="shadowOffsetInner3" in2="SourceAlpha" k2="-1" k3="1" operator="arithmetic" result="shadowInnerInner3"/><feColorMatrix in="shadowInnerInner3" result="shadowMatrixInner3" type="matrix" values="0 0 0 0 0   0 0 0 0 0   0 0 0 0 0  0 0 0 0.5 0"/><feGaussianBlur in="SourceAlpha" result="shadowBlurInner4" stdDeviation="7.5"/><feOffset dx="0" dy="-8" in="shadowBlurInner4" result="shadowOffsetInner4"/><feComposite in="shadowOffsetInner4" in2="SourceAlpha" k2="-1" k3="1" operator="arithmetic" result="shadowInnerInner4"/><feColorMatrix in="shadowInnerInner4" result="shadowMatrixInner4" type="matrix" values="0 0 0 0 0.6509804   0 0 0 0 0.40392157   0 0 0 0 0.02745098  0 0 0 0.5 0"/><feOffset dx="0" dy="-1" in="SourceAlpha" result="shadowOffsetInner5"/><feComposite in="shadowOffsetInner5" in2="SourceAlpha" k2="-1" k3="1" operator="arithmetic" result="shadowInnerInner5"/><feColorMatrix in="shadowInnerInner5" result="shadowMatrixInner5" type="matrix" values="0 0 0 0 0.70980394   0 0 0 0 0.3647059   0 0 0 0 0.019607844  0 0 0 1 0"/><feGaussianBlur in="SourceAlpha" result="shadowBlurInner6" stdDeviation=".5"/><feOffset dx="0" dy="1" in="shadowBlurInner6" result="shadowOffsetInner6"/><feComposite in="shadowOffsetInner6" in2="SourceAlpha" k2="-1" k3="1" operator="arithmetic" result="shadowInnerInner6"/><feColorMatrix in="shadowInnerInner6" result="shadowMatrixInner6" type="matrix" values="0 0 0 0 0   0 0 0 0 0   0 0 0 0 0  0 0 0 1 0"/><feMerge><feMergeNode in="shadowMatrixInner1"/><feMergeNode in="shadowMatrixInner2"/><feMergeNode in="shadowMatrixInner3"/><feMergeNode in="shadowMatrixInner4"/><feMergeNode in="shadowMatrixInner5"/><feMergeNode in="shadowMatrixInner6"/></feMerge></filter><linearGradient id="e" x1="50%" x2="50%" xlink:href="#a" y1="25.073014%" y2="-43.596671%"/><linearGradient id="f" x1="50%" x2="50%" y1="0%" y2="50%"><stop offset="0" stop-color="#fff"/><stop offset="1" stop-color="#fff" stop-opacity="0"/></linearGradient><path id="g" d="m56.999898 6.999937c27.614358 0 50.000094 23.281274 50.000094 52.000074s-22.385736 51.999967-50.000094 51.999967c-27.614154 0-49.99989-23.281167-49.99989-51.999967s22.385736-52.000074 49.99989-52.000074z"/><path id="h" d="m57.029648 69.999988c17.68938 0 26.689376-3.925362 33.959688-6.004418 1.960116 0 2.01058 1.376284 2.01058 3.004318 0 8.328194-4.153324 15.38924-10.990816 22.000176-6.443736 6.230024-15.280332 9.99989-24.979452 9.99989 0-.0156956-.0105805-.028161-.029564-.0378948v.0378948s-.2401153-.036625-.4850263-.0560347c-.2447249.0194097-.4846577.0560347-.4846577.0560347v-.0382692c-.0194612.009788-.030324.0223717-.030324.0382692-9.7071 0-18.551068-3.769866-25.000048-9.99989-6.84304-6.610936-11.000012-13.671982-11.000012-22.000176 0-1.628034.050616-3.004318 2.012252-3.004318 7.276316 2.079056 16.283532 6.004418 33.987808 6.004418 3.6640136 0 1.3252867 0 1.029572 0z"/><filter id="i" height="110.5%" width="105.3%" x="-2.6%" y="-2.6%"><feOffset dx="0" dy="1" in="SourceAlpha" result="shadowOffsetOuter1"/><feGaussianBlur in="shadowOffsetOuter1" result="shadowBlurOuter1" stdDeviation=".5"/><feColorMatrix in="shadowBlurOuter1" type="matrix" values="0 0 0 0 1   0 0 0 0 1   0 0 0 0 1  0 0 0 0.4 0"/></filter><filter id="j" height="123.9%" width="112%" x="-6%" y="-9.3%"><feMorphology in="SourceAlpha" operator="erode" radius="0.5" result="shadowSpreadInner1"/><feGaussianBlur in="shadowSpreadInner1" result="shadowBlurInner1" stdDeviation="2.3"/><feOffset dx="0" dy="2" in="shadowBlurInner1" result="shadowOffsetInner1"/><feComposite in="shadowOffsetInner1" in2="SourceAlpha" k2="-1" k3="1" operator="arithmetic" result="shadowInnerInner1"/><feColorMatrix in="shadowInnerInner1" result="shadowMatrixInner1" type="matrix" values="0 0 0 0 0   0 0 0 0 0   0 0 0 0 0  0 0 0 1 0"/><feGaussianBlur in="SourceAlpha" result="shadowBlurInner2" stdDeviation="1.5"/><feOffset dx="0" dy="0" in="shadowBlurInner2" result="shadowOffsetInner2"/><feComposite in="shadowOffsetInner2" in2="SourceAlpha" k2="-1" k3="1" operator="arithmetic" result="shadowInnerInner2"/><feColorMatrix in="shadowInnerInner2" result="shadowMatrixInner2" type="matrix" values="0 0 0 0 0   0 0 0 0 0   0 0 0 0 0  0 0 0 0.75 0"/><feMerge><feMergeNode in="shadowMatrixInner1"/><feMergeNode in="shadowMatrixInner2"/></feMerge></filter><linearGradient id="k" x1="0%" x2="100%" y1="50%" y2="57.886951%"><stop offset="0" stop-color="#c7cacd"/><stop offset=".430604273" stop-color="#fff"/><stop offset="1" stop-color="#c7cacd"/></linearGradient><path id="l" d="m56.000018 81.499988c0-1.844622.499982-5.544648.499982-8.499996 16.9435609-.06598 31.4618508-3.4254364 34.000054-6.000102 0 3.981906-1.384642 8.397324-2.471865 9.500094-1.087365 1.10277-19.161409 5.000004-32.028171 5.000004-13.050581 0-29.897248-3.897234-31.000091-5.000004-1.102772-1.10277-2.499839-5.53815-2.499839-9.500094 2.5871185 2.5873722 16.462188 5.9673006 33.7481809 5.9998649z"/><filter id="m" height="131.3%" width="105.9%" x="-2.9%" y="-10.6%"><feMorphology in="SourceAlpha" operator="dilate" radius="0.1" result="shadowSpreadOuter1"/><feOffset dx="0" dy="1" in="shadowSpreadOuter1" result="shadowOffsetOuter1"/><feGaussianBlur in="shadowOffsetOuter1" result="shadowBlurOuter1" stdDeviation=".4"/><feColorMatrix in="shadowBlurOuter1" type="matrix" values="0 0 0 0 0   0 0 0 0 0   0 0 0 0 0  0 0 0 1 0"/></filter><filter id="n" height="138.2%" width="107.4%" x="-3.7%" y="-14.1%"><feMorphology in="SourceAlpha" operator="erode" radius="0.5" result="shadowSpreadInner1"/><feGaussianBlur in="shadowSpreadInner1" result="shadowBlurInner1" stdDeviation="1.25"/><feOffset dx="0" dy="0" in="shadowBlurInner1" result="shadowOffsetInner1"/><feComposite in="shadowOffsetInner1" in2="SourceAlpha" k2="-1" k3="1" operator="arithmetic" result="shadowInnerInner1"/><feColorMatrix in="shadowInnerInner1" type="matrix" values="0 0 0 0 1   0 0 0 0 1   0 0 0 0 1  0 0 0 0.2 0"/></filter><path id="o" d="m49.99995 46.000011c0-2.700828-17.0333-12.000084-21.210925-12.000084-1.016675 0-1.076325.934409 0 2.000101 4.33145 4.288346 12.120575 6.879902 12.120575 9.999983 0 1.112411-1.30515 2.735947-3.02125 4.396342-3.096725 2.996744-4.569475 3.122343-8.047425 6.56589-.50355.498423-.9291 2.252749.96825 2.037772 1.897475-.215006 19.190775-8.977588 19.190775-13.000004z"/><filter id="p" height="113.8%" width="116%" x="-8%" y="-3.4%"><feOffset dx="0" dy="1" in="SourceAlpha" result="shadowOffsetOuter1"/><feGaussianBlur in="shadowOffsetOuter1" result="shadowBlurOuter1" stdDeviation=".5"/><feColorMatrix in="shadowBlurOuter1" type="matrix" values="0 0 0 0 1   0 0 0 0 1   0 0 0 0 1  0 0 0 1 0"/></filter><filter id="q" height="131.4%" width="136.4%" x="-18.2%" y="-12.2%"><feMorphology in="SourceAlpha" operator="erode" radius="0.5" result="shadowSpreadInner1"/><feGaussianBlur in="shadowSpreadInner1" result="shadowBlurInner1" stdDeviation="2.3"/><feOffset dx="0" dy="2" in="shadowBlurInner1" result="shadowOffsetInner1"/><feComposite in="shadowOffsetInner1" in2="SourceAlpha" k2="-1" k3="1" operator="arithmetic" result="shadowInnerInner1"/><feColorMatrix in="shadowInnerInner1" result="shadowMatrixInner1" type="matrix" values="0 0 0 0 0   0 0 0 0 0   0 0 0 0 0  0 0 0 1 0"/><feGaussianBlur in="SourceAlpha" result="shadowBlurInner2" stdDeviation="1.5"/><feOffset dx="0" dy="0" in="shadowBlurInner2" result="shadowOffsetInner2"/><feComposite in="shadowOffsetInner2" in2="SourceAlpha" k2="-1" k3="1" operator="arithmetic" result="shadowInnerInner2"/><feColorMatrix in="shadowInnerInner2" result="shadowMatrixInner2" type="matrix" values="0 0 0 0 0   0 0 0 0 0   0 0 0 0 0  0 0 0 0.75 0"/><feMerge><feMergeNode in="shadowMatrixInner1"/><feMergeNode in="shadowMatrixInner2"/></feMerge></filter><path id="r" d="m64.00005 46.000011c0-2.700828 16.863925-12.000084 20.99995-12.000084 1.006625 0 1.065675.934409 0 2.000101-4.2883 4.288346-12.00005 6.879902-12.00005 9.999983 0 1.112411 1.292225 2.735947 2.991175 4.396342 3.066075 2.996744 4.523975 3.122343 7.96755 6.56589.4985.498423.91985 2.252749-.9587 2.037772-1.87855-.215006-18.999925-8.977588-18.999925-13.000004z"/><filter id="s" height="113.8%" width="116%" x="-8%" y="-3.4%"><feOffset dx="0" dy="1" in="SourceAlpha" result="shadowOffsetOuter1"/><feGaussianBlur in="shadowOffsetOuter1" result="shadowBlurOuter1" stdDeviation=".5"/><feColorMatrix in="shadowBlurOuter1" type="matrix" values="0 0 0 0 1   0 0 0 0 1   0 0 0 0 1  0 0 0 1 0"/></filter><filter id="t" height="131.4%" width="136.4%" x="-18.2%" y="-12.2%"><feMorphology in="SourceAlpha" operator="erode" radius="0.5" result="shadowSpreadInner1"/><feGaussianBlur in="shadowSpreadInner1" result="shadowBlurInner1" stdDeviation="2.3"/><feOffset dx="0" dy="2" in="shadowBlurInner1" result="shadowOffsetInner1"/><feComposite in="shadowOffsetInner1" in2="SourceAlpha" k2="-1" k3="1" operator="arithmetic" result="shadowInnerInner1"/><feColorMatrix in="shadowInnerInner1" result="shadowMatrixInner1" type="matrix" values="0 0 0 0 0   0 0 0 0 0   0 0 0 0 0  0 0 0 1 0"/><feGaussianBlur in="SourceAlpha" result="shadowBlurInner2" stdDeviation="1.5"/><feOffset dx="0" dy="0" in="shadowBlurInner2" result="shadowOffsetInner2"/><feComposite in="shadowOffsetInner2" in2="SourceAlpha" k2="-1" k3="1" operator="arithmetic" result="shadowInnerInner2"/><feColorMatrix in="shadowInnerInner2" result="shadowMatrixInner2" type="matrix" values="0 0 0 0 0   0 0 0 0 0   0 0 0 0 0  0 0 0 0.75 0"/><feMerge><feMergeNode in="shadowMatrixInner1"/><feMergeNode in="shadowMatrixInner2"/></feMerge></filter></defs><g fill="none" fill-rule="evenodd" transform="translate(-2 -2)"><g><use fill="#ffee40" fill-rule="evenodd" xlink:href="#c"/><use fill="url(#b)" fill-rule="evenodd" xlink:href="#c"/><use fill="#000" filter="url(#d)" xlink:href="#c"/></g><g><use fill="url(#e)" xlink:href="#g"/><use fill="url(#f)" xlink:href="#g"/></g><g><use fill="#000" filter="url(#i)" xlink:href="#h"/><use fill="#a66707" fill-rule="evenodd" xlink:href="#h"/><use fill="#000" filter="url(#j)" xlink:href="#h"/></g><g><use fill="#000" filter="url(#m)" xlink:href="#l"/><use fill="#fff" fill-rule="evenodd" xlink:href="#l"/><use fill="url(#k)" fill-rule="evenodd" xlink:href="#l"/><use fill="#000" filter="url(#n)" xlink:href="#l"/></g><g><use fill="#000" filter="url(#p)" xlink:href="#o"/><use fill="#a66707" fill-rule="evenodd" xlink:href="#o"/><use fill="#000" filter="url(#q)" xlink:href="#o"/></g><g><use fill="#000" filter="url(#s)" xlink:href="#r"/><use fill="#a66707" fill-rule="evenodd" xlink:href="#r"/><use fill="#000" filter="url(#t)" xlink:href="#r"/></g></g></svg>