<svg height="102" viewBox="0 0 106 102" width="106" xmlns="http://www.w3.org/2000/svg" xmlns:xlink="http://www.w3.org/1999/xlink"><defs><linearGradient id="a" x1="50%" x2="50%" y1="0%" y2="100%"><stop offset="0" stop-color="#fff" stop-opacity=".25"/><stop offset="1" stop-color="#fff" stop-opacity="0"/></linearGradient><path id="b" d="m38.000016 100.99992s11.755044 2.000145 29.999916 2.000145c18.245088 0 38.999988.450765 38.999988-14.00007s-14.999904-14.999985-14.999904-14.999985 3.000024-3.09204 3.000024-9.000075c0-5.90793-2.98728-13.999965-13.000068-13.999965-.023976 0 2.000052-2.565255 2.000052-6.99993 0-7.257285-6.745572-11.00001-14.00004-11.00001 2.849472-8.407665-2.447496-24.07755-27-32.00001-2.5974 0 0 2.40996 0 7.000035s-6.000048 7.35-6.000048 13.999965c0 2.67183 2.000052 3.999975 2.000052 3.999975s-15.000012 3.469935-15.000012 14.999985c0 6.959505 2.000052 8.99997 2.000052 8.99997s-13.000068 2.71824-13.000068 14.999985c0 7.40649 2.000052 8.000055 2.000052 8.000055s-13.999932 3.365775-13.999932 16.000005c0 12.634335 8.45262 14.00007 14.999904 14.00007 6.547392 0 11.744892-2.000145 22.000032-2.000145z"/><filter id="c" height="111.4%" width="111.1%" x="-5.6%" y="-5.7%"><feGaussianBlur in="SourceAlpha" result="shadowBlurInner1" stdDeviation="3.5"/><feOffset dx="0" dy="5" in="shadowBlurInner1" result="shadowOffsetInner1"/><feComposite in="shadowOffsetInner1" in2="SourceAlpha" k2="-1" k3="1" operator="arithmetic" result="shadowInnerInner1"/><feColorMatrix in="shadowInnerInner1" result="shadowMatrixInner1" type="matrix" values="0 0 0 0 1   0 0 0 0 1   0 0 0 0 1  0 0 0 0.2 0"/><feOffset dx="0" dy="0" in="SourceAlpha" result="shadowOffsetInner2"/><feComposite in="shadowOffsetInner2" in2="SourceAlpha" k2="-1" k3="1" operator="arithmetic" result="shadowInnerInner2"/><feColorMatrix in="shadowInnerInner2" result="shadowMatrixInner2" type="matrix" values="0 0 0 0 0   0 0 0 0 0   0 0 0 0 0  0 0 0 0.5 0"/><feGaussianBlur in="SourceAlpha" result="shadowBlurInner3" stdDeviation="4"/><feOffset dx="0" dy="0" in="shadowBlurInner3" result="shadowOffsetInner3"/><feComposite in="shadowOffsetInner3" in2="SourceAlpha" k2="-1" k3="1" operator="arithmetic" result="shadowInnerInner3"/><feColorMatrix in="shadowInnerInner3" result="shadowMatrixInner3" type="matrix" values="0 0 0 0 0   0 0 0 0 0   0 0 0 0 0  0 0 0 0.75 0"/><feOffset dx="0" dy="0" in="SourceAlpha" result="shadowOffsetInner4"/><feComposite in="shadowOffsetInner4" in2="SourceAlpha" k2="-1" k3="1" operator="arithmetic" result="shadowInnerInner4"/><feColorMatrix in="shadowInnerInner4" result="shadowMatrixInner4" type="matrix" values="0 0 0 0 0   0 0 0 0 0   0 0 0 0 0  0 0 0 0.5 0"/><feGaussianBlur in="SourceAlpha" result="shadowBlurInner5" stdDeviation="3.5"/><feOffset dx="0" dy="0" in="shadowBlurInner5" result="shadowOffsetInner5"/><feComposite in="shadowOffsetInner5" in2="SourceAlpha" k2="-1" k3="1" operator="arithmetic" result="shadowInnerInner5"/><feColorMatrix in="shadowInnerInner5" result="shadowMatrixInner5" type="matrix" values="0 0 0 0 0   0 0 0 0 0   0 0 0 0 0  0 0 0 0.18 0"/><feGaussianBlur in="SourceAlpha" result="shadowBlurInner6" stdDeviation=".5"/><feOffset dx="0" dy="1" in="shadowBlurInner6" result="shadowOffsetInner6"/><feComposite in="shadowOffsetInner6" in2="SourceAlpha" k2="-1" k3="1" operator="arithmetic" result="shadowInnerInner6"/><feColorMatrix in="shadowInnerInner6" result="shadowMatrixInner6" type="matrix" values="0 0 0 0 1   0 0 0 0 1   0 0 0 0 1  0 0 0 0.75 0"/><feMerge><feMergeNode in="shadowMatrixInner1"/><feMergeNode in="shadowMatrixInner2"/><feMergeNode in="shadowMatrixInner3"/><feMergeNode in="shadowMatrixInner4"/><feMergeNode in="shadowMatrixInner5"/><feMergeNode in="shadowMatrixInner6"/></feMerge></filter><linearGradient id="d" x1="50%" x2="50%" y1="100%" y2="0%"><stop offset="0" stop-color="#fff" stop-opacity="0"/><stop offset="1" stop-color="#fff" stop-opacity=".22"/></linearGradient><path id="e" d="m26.000075 49.999976s-2.000067-2.04048-2.000067-8.999952c0-14.34108 28.999977-19.00002 28.999977-19.00002s-16.000026 3.621696-16.000026 0c0-6.649968 5.999997-9.409868 5.999997-13.99996s-2.597379-6.99998 0-6.99998c25.377141 7.767604 29.849484 23.592296 27.000063 31.999968-16.663995 14.851564-43.999944 16.999944-43.999944 16.999944z"/><filter id="f" height="142.3%" width="143.1%" x="-21.6%" y="-23.1%"><feOffset dx="0" dy="-1" in="SourceAlpha" result="shadowOffsetOuter1"/><feGaussianBlur in="shadowOffsetOuter1" result="shadowBlurOuter1" stdDeviation="3.5"/><feComposite in="shadowBlurOuter1" in2="SourceAlpha" operator="out" result="shadowBlurOuter1"/><feColorMatrix in="shadowBlurOuter1" type="matrix" values="0 0 0 0 0   0 0 0 0 0   0 0 0 0 0  0 0 0 0.2 0"/></filter><filter id="g" height="142.1%" width="142.9%" x="-21.5%" y="-23%"><feGaussianBlur in="SourceAlpha" result="shadowBlurInner1" stdDeviation="2"/><feOffset dx=".7" dy="3.9" in="shadowBlurInner1" result="shadowOffsetInner1"/><feComposite in="shadowOffsetInner1" in2="SourceAlpha" k2="-1" k3="1" operator="arithmetic" result="shadowInnerInner1"/><feColorMatrix in="shadowInnerInner1" result="shadowMatrixInner1" type="matrix" values="0 0 0 0 0.7137255   0 0 0 0 0.52156866   0 0 0 0 0.34901962  0 0 0 1 0"/><feGaussianBlur in="SourceAlpha" result="shadowBlurInner2" stdDeviation=".5"/><feOffset dx="-5" dy=".4" in="shadowBlurInner2" result="shadowOffsetInner2"/><feComposite in="shadowOffsetInner2" in2="SourceAlpha" k2="-1" k3="1" operator="arithmetic" result="shadowInnerInner2"/><feColorMatrix in="shadowInnerInner2" result="shadowMatrixInner2" type="matrix" values="0 0 0 0 0   0 0 0 0 0   0 0 0 0 0  0 0 0 0.2 0"/><feMerge><feMergeNode in="shadowMatrixInner1"/><feMergeNode in="shadowMatrixInner2"/></feMerge></filter><path id="h" d="m26.000022 49.999984s-13.000024 1.475726-13.000024 15.000002c0 7.40646 1.999998 7.999998 1.999998 7.999998s31.171686 3.99027 66.99997-22.000006c-.023976 0 1.999998-2.565282 1.999998-6.999958 0-7.257282-6.745544-11.000026-13.999986-11.000026-13.608156 15.218042-43.999956 16.99999-43.999956 16.99999z"/><filter id="i" height="147.8%" width="129.7%" x="-14.9%" y="-26.1%"><feOffset dx="0" dy="-1" in="SourceAlpha" result="shadowOffsetOuter1"/><feGaussianBlur in="shadowOffsetOuter1" result="shadowBlurOuter1" stdDeviation="3.5"/><feComposite in="shadowBlurOuter1" in2="SourceAlpha" operator="out" result="shadowBlurOuter1"/><feColorMatrix in="shadowBlurOuter1" type="matrix" values="0 0 0 0 0   0 0 0 0 0   0 0 0 0 0  0 0 0 0.3 0"/></filter><filter id="j" height="167.4%" width="141.9%" x="-20.9%" y="-35.9%"><feGaussianBlur in="SourceAlpha" result="shadowBlurInner1" stdDeviation="4"/><feOffset dx="0" dy="9" in="shadowBlurInner1" result="shadowOffsetInner1"/><feComposite in="shadowOffsetInner1" in2="SourceAlpha" k2="-1" k3="1" operator="arithmetic" result="shadowInnerInner1"/><feColorMatrix in="shadowInnerInner1" type="matrix" values="0 0 0 0 0.5764706   0 0 0 0 0.40784314   0 0 0 0 0.27058825  0 0 0 0.9 0"/></filter><path id="k" d="m81.99992 50.999984c11.738746 0 13.000134 8.092056 13.000134 14s-3.000113 8.999984-3.000113 8.999984-9.042825 17.164896-53.9999 27.000008c-36.150833 0-15.452682 2.000096-21.999988 2.000096-6.547403 0-14.999983-1.365784-14.999983-14.000112 0-13.986392 13.999913-15.999984 13.999913-15.999984s36.969804 3.208576 66.999937-21.999992z"/><filter id="l" height="139.3%" width="122.7%" x="-11.3%" y="-21.4%"><feOffset dx="0" dy="-1" in="SourceAlpha" result="shadowOffsetOuter1"/><feGaussianBlur in="shadowOffsetOuter1" result="shadowBlurOuter1" stdDeviation="3.5"/><feComposite in="shadowBlurOuter1" in2="SourceAlpha" operator="out" result="shadowBlurOuter1"/><feColorMatrix in="shadowBlurOuter1" type="matrix" values="0 0 0 0 0   0 0 0 0 0   0 0 0 0 0  0 0 0 0.2 0"/></filter><filter id="m" height="153.6%" width="130.9%" x="-15.5%" y="-28.6%"><feGaussianBlur in="SourceAlpha" result="shadowBlurInner1" stdDeviation="4.5"/><feOffset dx="0" dy="7" in="shadowBlurInner1" result="shadowOffsetInner1"/><feComposite in="shadowOffsetInner1" in2="SourceAlpha" k2="-1" k3="1" operator="arithmetic" result="shadowInnerInner1"/><feColorMatrix in="shadowInnerInner1" result="shadowMatrixInner1" type="matrix" values="0 0 0 0 0.65882355   0 0 0 0 0.45490196   0 0 0 0 0.28235295  0 0 0 1 0"/><feGaussianBlur in="SourceAlpha" result="shadowBlurInner2" stdDeviation="2.5"/><feOffset dx="0" dy="0" in="shadowBlurInner2" result="shadowOffsetInner2"/><feComposite in="shadowOffsetInner2" in2="SourceAlpha" k2="-1" k3="1" operator="arithmetic" result="shadowInnerInner2"/><feColorMatrix in="shadowInnerInner2" result="shadowMatrixInner2" type="matrix" values="0 0 0 0 0   0 0 0 0 0   0 0 0 0 0  0 0 0 0.35 0"/><feMerge><feMergeNode in="shadowMatrixInner1"/><feMergeNode in="shadowMatrixInner2"/></feMerge></filter><linearGradient id="n" x1="50%" x2="50%" y1="100%" y2="0%"><stop offset="0" stop-opacity=".2"/><stop offset="1" stop-opacity="0"/></linearGradient><path id="o" d="m38.000016 100.999938s11.755008 2.000097 29.999952 2.000097c18.245016 0 39.000024.450846 39.000024-14.000085 0-15.688101-15.000048-14.999985-15.000048-14.999985s-6.47712 12.854952-53.999928 26.999973z"/><filter id="p" height="166.7%" width="130.6%" x="-15.3%" y="-36.4%"><feOffset dx="0" dy="-1" in="SourceAlpha" result="shadowOffsetOuter1"/><feGaussianBlur in="shadowOffsetOuter1" result="shadowBlurOuter1" stdDeviation="3.5"/><feComposite in="shadowBlurOuter1" in2="SourceAlpha" operator="out" result="shadowBlurOuter1"/><feColorMatrix in="shadowBlurOuter1" type="matrix" values="0 0 0 0 0   0 0 0 0 0   0 0 0 0 0  0 0 0 0.2 0"/></filter><filter id="q" height="178.8%" width="136.1%" x="-18.1%" y="-42.4%"><feGaussianBlur in="SourceAlpha" result="shadowBlurInner1" stdDeviation="4"/><feOffset dx="0" dy="4" in="shadowBlurInner1" result="shadowOffsetInner1"/><feComposite in="shadowOffsetInner1" in2="SourceAlpha" k2="-1" k3="1" operator="arithmetic" result="shadowInnerInner1"/><feColorMatrix in="shadowInnerInner1" type="matrix" values="0 0 0 0 0.56078434   0 0 0 0 0.38039216   0 0 0 0 0.22352941  0 0 0 1 0"/></filter><linearGradient id="r" x1="50%" x2="50%" y1="0%" y2="100%"><stop offset="0" stop-color="#8f8f8f"/><stop offset="1" stop-color="#fff"/></linearGradient><path id="s" d="m73.999941 80.83337c-.009933 2.03364-8.422195 9.666585-19.774238 9.666585s-20.225652-7.66659-20.225652-9.666585 1.138296-1.999995 2.493527-1.999995 6.871056.99999 17.732125.99999c10.618721 0 16.011394-.99999 17.33631-.99999 1.325045 0 2.44799-.033735 2.437928 1.999995z"/><filter id="t" height="106.7%" width="102.3%" x="-1.2%" y="-3.3%"><feOffset dx="0" dy="1" in="SourceAlpha" result="shadowOffsetInner1"/><feComposite in="shadowOffsetInner1" in2="SourceAlpha" k2="-1" k3="1" operator="arithmetic" result="shadowInnerInner1"/><feColorMatrix in="shadowInnerInner1" type="matrix" values="0 0 0 0 0   0 0 0 0 0   0 0 0 0 0  0 0 0 0.41 0"/></filter><path id="u" d="m12.999987.999998c6.627393 0 12.000069 6.491834 12.000069 14.500002 0 8.008137-5.372676 14.499971-12.000069 14.499971s-11.999934-6.491834-11.999934-14.499971c0-8.008168 5.372541-14.500002 11.999934-14.500002z"/><filter id="v" height="141.9%" width="148.1%" x="-24.1%" y="-24.2%"><feOffset dx="0" dy="-1" in="SourceAlpha" result="shadowOffsetOuter1"/><feGaussianBlur in="shadowOffsetOuter1" result="shadowBlurOuter1" stdDeviation="2"/><feColorMatrix in="shadowBlurOuter1" result="shadowMatrixOuter1" type="matrix" values="0 0 0 0 1   0 0 0 0 1   0 0 0 0 1  0 0 0 0.75 0"/><feOffset dx="0" dy="0" in="SourceAlpha" result="shadowOffsetOuter2"/><feColorMatrix in="shadowOffsetOuter2" result="shadowMatrixOuter2" type="matrix" values="0 0 0 0 0   0 0 0 0 0   0 0 0 0 0  0 0 0 0.5 0"/><feOffset dx="0" dy="0" in="SourceAlpha" result="shadowOffsetOuter3"/><feColorMatrix in="shadowOffsetOuter3" result="shadowMatrixOuter3" type="matrix" values="0 0 0 0 0   0 0 0 0 0   0 0 0 0 0  0 0 0 0.25 0"/><feMerge><feMergeNode in="shadowMatrixOuter1"/><feMergeNode in="shadowMatrixOuter2"/><feMergeNode in="shadowMatrixOuter3"/></feMerge></filter><filter id="w" height="148.4%" width="155.6%" x="-27.8%" y="-27.4%"><feGaussianBlur in="SourceAlpha" result="shadowBlurInner1" stdDeviation="2.5"/><feOffset dx="0" dy="2" in="shadowBlurInner1" result="shadowOffsetInner1"/><feComposite in="shadowOffsetInner1" in2="SourceAlpha" k2="-1" k3="1" operator="arithmetic" result="shadowInnerInner1"/><feColorMatrix in="shadowInnerInner1" type="matrix" values="0 0 0 0 0   0 0 0 0 0   0 0 0 0 0  0 0 0 0.5 0"/></filter><linearGradient id="x" x1="50%" x2="50%" y1="0%" y2="100%"><stop offset="0"/><stop offset="1" stop-color="#252525"/></linearGradient><path id="y" d="m12.999986 6c3.313688 0 5.999966 4.0294 5.999966 9 0 4.97058-2.686278 8.99998-5.999966 8.99998-3.313702 0-5.99998-4.0294-5.99998-8.99998 0-4.9706 2.686278-9 5.99998-9z"/><path id="z" d="m14.00004.999998c6.627393 0 11.999934 6.491834 11.999934 14.500002 0 8.008137-5.372541 14.499971-11.999934 14.499971s-12.000069-6.491834-12.000069-14.499971c0-8.008168 5.372676-14.500002 12.000069-14.500002z"/><filter id="A" height="141.9%" width="148.1%" x="-24.1%" y="-24.2%"><feOffset dx="0" dy="-1" in="SourceAlpha" result="shadowOffsetOuter1"/><feGaussianBlur in="shadowOffsetOuter1" result="shadowBlurOuter1" stdDeviation="2"/><feColorMatrix in="shadowBlurOuter1" result="shadowMatrixOuter1" type="matrix" values="0 0 0 0 1   0 0 0 0 1   0 0 0 0 1  0 0 0 0.75 0"/><feOffset dx="0" dy="0" in="SourceAlpha" result="shadowOffsetOuter2"/><feColorMatrix in="shadowOffsetOuter2" result="shadowMatrixOuter2" type="matrix" values="0 0 0 0 0   0 0 0 0 0   0 0 0 0 0  0 0 0 0.5 0"/><feOffset dx="0" dy="0" in="SourceAlpha" result="shadowOffsetOuter3"/><feColorMatrix in="shadowOffsetOuter3" result="shadowMatrixOuter3" type="matrix" values="0 0 0 0 0   0 0 0 0 0   0 0 0 0 0  0 0 0 0.25 0"/><feMerge><feMergeNode in="shadowMatrixOuter1"/><feMergeNode in="shadowMatrixOuter2"/><feMergeNode in="shadowMatrixOuter3"/></feMerge></filter><filter id="B" height="148.4%" width="155.6%" x="-27.8%" y="-27.4%"><feGaussianBlur in="SourceAlpha" result="shadowBlurInner1" stdDeviation="2.5"/><feOffset dx="0" dy="2" in="shadowBlurInner1" result="shadowOffsetInner1"/><feComposite in="shadowOffsetInner1" in2="SourceAlpha" k2="-1" k3="1" operator="arithmetic" result="shadowInnerInner1"/><feColorMatrix in="shadowInnerInner1" type="matrix" values="0 0 0 0 0   0 0 0 0 0   0 0 0 0 0  0 0 0 0.5 0"/></filter><path id="C" d="m14.000032 6c3.313696 0 5.999968 4.0294 5.999968 9 0 4.97058-2.686272 8.99998-5.999968 8.99998s-6.000096-4.0294-6.000096-8.99998c0-4.9706 2.6864-9 6.000096-9z"/><mask id="D" fill="#fff"><use fill="none" xlink:href="#b"/></mask></defs><g fill="none" fill-rule="evenodd"><g transform="translate(-1 -1)"><use fill="#733d00" fill-rule="evenodd" xlink:href="#b"/><use fill="url(#a)" fill-rule="evenodd" xlink:href="#b"/><use fill="#000" filter="url(#c)" xlink:href="#b"/><g mask="url(#D)"><use fill="#000" filter="url(#f)" xlink:href="#e"/><use fill="none" xlink:href="#e"/><use fill="url(#d)" fill-rule="evenodd" xlink:href="#e"/><use fill="#000" filter="url(#g)" xlink:href="#e"/></g><g mask="url(#D)"><use fill="#000" filter="url(#i)" xlink:href="#h"/><use fill="none" xlink:href="#h"/><use fill="#000" filter="url(#j)" xlink:href="#h"/></g><g mask="url(#D)"><use fill="#000" filter="url(#l)" xlink:href="#k"/><use fill="none" xlink:href="#k"/><use fill="#000" filter="url(#m)" xlink:href="#k"/></g><g mask="url(#D)"><use fill="#000" filter="url(#p)" xlink:href="#o"/><use fill="none" xlink:href="#o"/><use fill="url(#n)" fill-rule="evenodd" xlink:href="#o"/><use fill="#000" filter="url(#q)" xlink:href="#o"/></g></g><g transform="translate(-1 -1)"><use fill="#fff" fill-rule="evenodd" xlink:href="#s"/><use fill="url(#r)" fill-rule="evenodd" xlink:href="#s"/><use fill="#000" filter="url(#t)" xlink:href="#s"/></g><g transform="translate(23 43)"><use fill="#000" filter="url(#v)" xlink:href="#u"/><use fill="#fff" fill-rule="evenodd" xlink:href="#u"/><use fill="#000" filter="url(#w)" xlink:href="#u"/></g><g transform="translate(23 43)"><use fill="#fff" xlink:href="#y"/><use fill="url(#x)" xlink:href="#y"/></g><g transform="translate(57 43)"><g><use fill="#000" filter="url(#A)" xlink:href="#z"/><use fill="#fff" fill-rule="evenodd" xlink:href="#z"/><use fill="#000" filter="url(#B)" xlink:href="#z"/></g><g><use fill="#fff" xlink:href="#C"/><use fill="url(#x)" xlink:href="#C"/></g></g></g></svg>