<svg height="110" viewBox="0 0 110 110" width="110" xmlns="http://www.w3.org/2000/svg" xmlns:xlink="http://www.w3.org/1999/xlink"><defs><linearGradient id="a"><stop offset="0" stop-color="#fff" stop-opacity="0"/><stop offset="1" stop-color="#fff"/></linearGradient><linearGradient id="b" x1="50%" x2="50%" xlink:href="#a" y1="100%" y2="0%"/><path id="c" d="m55.999975 1.00005c30.375756 0 55.000038 24.624282 55.000038 54.999925s-24.624282 55.000038-55.000038 55.000038c-30.375643 0-54.999925-24.624395-54.999925-55.000038s24.624282-54.999925 54.999925-54.999925z"/><filter id="d" height="175.2%" width="175.2%" x="-37.6%" y="-37.6%"><feGaussianBlur in="SourceAlpha" result="shadowBlurInner1" stdDeviation="30"/><feOffset dx="0" dy="-25" in="shadowBlurInner1" result="shadowOffsetInner1"/><feComposite in="shadowOffsetInner1" in2="SourceAlpha" k2="-1" k3="1" operator="arithmetic" result="shadowInnerInner1"/><feColorMatrix in="shadowInnerInner1" result="shadowMatrixInner1" type="matrix" values="0 0 0 0 1   0 0 0 0 0.6039216   0 0 0 0 0  0 0 0 1 0"/><feMorphology in="SourceAlpha" operator="erode" radius="0.6" result="shadowSpreadInner2"/><feGaussianBlur in="shadowSpreadInner2" result="shadowBlurInner2" stdDeviation="2.7"/><feOffset dx="0" dy="2" in="shadowBlurInner2" result="shadowOffsetInner2"/><feComposite in="shadowOffsetInner2" in2="SourceAlpha" k2="-1" k3="1" operator="arithmetic" result="shadowInnerInner2"/><feColorMatrix in="shadowInnerInner2" result="shadowMatrixInner2" type="matrix" values="0 0 0 0 0   0 0 0 0 0   0 0 0 0 0  0 0 0 0.4 0"/><feMorphology in="SourceAlpha" operator="erode" radius="3.9" result="shadowSpreadInner3"/><feGaussianBlur in="shadowSpreadInner3" result="shadowBlurInner3" stdDeviation="4.55"/><feOffset dx="0" dy="0" in="shadowBlurInner3" result="shadowOffsetInner3"/><feComposite in="shadowOffsetInner3" in2="SourceAlpha" k2="-1" k3="1" operator="arithmetic" result="shadowInnerInner3"/><feColorMatrix in="shadowInnerInner3" result="shadowMatrixInner3" type="matrix" values="0 0 0 0 0   0 0 0 0 0   0 0 0 0 0  0 0 0 0.5 0"/><feGaussianBlur in="SourceAlpha" result="shadowBlurInner4" stdDeviation="7.5"/><feOffset dx="0" dy="-8" in="shadowBlurInner4" result="shadowOffsetInner4"/><feComposite in="shadowOffsetInner4" in2="SourceAlpha" k2="-1" k3="1" operator="arithmetic" result="shadowInnerInner4"/><feColorMatrix in="shadowInnerInner4" result="shadowMatrixInner4" type="matrix" values="0 0 0 0 0.6509804   0 0 0 0 0.40392157   0 0 0 0 0.02745098  0 0 0 0.5 0"/><feOffset dx="0" dy="-1" in="SourceAlpha" result="shadowOffsetInner5"/><feComposite in="shadowOffsetInner5" in2="SourceAlpha" k2="-1" k3="1" operator="arithmetic" result="shadowInnerInner5"/><feColorMatrix in="shadowInnerInner5" result="shadowMatrixInner5" type="matrix" values="0 0 0 0 0.70980394   0 0 0 0 0.3647059   0 0 0 0 0.019607844  0 0 0 1 0"/><feGaussianBlur in="SourceAlpha" result="shadowBlurInner6" stdDeviation=".5"/><feOffset dx="0" dy="1" in="shadowBlurInner6" result="shadowOffsetInner6"/><feComposite in="shadowOffsetInner6" in2="SourceAlpha" k2="-1" k3="1" operator="arithmetic" result="shadowInnerInner6"/><feColorMatrix in="shadowInnerInner6" result="shadowMatrixInner6" type="matrix" values="0 0 0 0 0   0 0 0 0 0   0 0 0 0 0  0 0 0 1 0"/><feMerge><feMergeNode in="shadowMatrixInner1"/><feMergeNode in="shadowMatrixInner2"/><feMergeNode in="shadowMatrixInner3"/><feMergeNode in="shadowMatrixInner4"/><feMergeNode in="shadowMatrixInner5"/><feMergeNode in="shadowMatrixInner6"/></feMerge></filter><linearGradient id="e" x1="50%" x2="50%" xlink:href="#a" y1="25.073014%" y2="-43.596671%"/><linearGradient id="f" x1="50%" x2="50%" y1="0%" y2="50%"><stop offset="0" stop-color="#fff"/><stop offset="1" stop-color="#fff" stop-opacity="0"/></linearGradient><path id="g" d="m56 6.000022c27.614184 0 50.00008 23.281167 50.00008 51.999967s-22.385896 52.000074-50.00008 52.000074c-27.614288 0-49.999976-23.281274-49.999976-52.000074s22.385688-51.999967 49.999976-51.999967z"/><path id="h" d="m56 86.99996c-19.5188 0-26.000016-13.23348-26.000016-15.4274 0-2.19404 4.322192 2.45456 12.07136 5.7853 9.226448 3.96556 18.630808 4.10148 27.857368.23042 7.749112-3.25128 12.07136-7.78864 12.07136-5.64712s-6.481384 15.0588-26.000072 15.0588z"/><filter id="i" width="107.1%" x="-3.6%" y="-5%"><feOffset dx="0" dy="1" in="SourceAlpha" result="shadowOffsetOuter1"/><feGaussianBlur in="shadowOffsetOuter1" result="shadowBlurOuter1" stdDeviation=".5"/><feColorMatrix in="shadowBlurOuter1" type="matrix" values="0 0 0 0 1   0 0 0 0 1   0 0 0 0 1  0 0 0 1 0"/></filter><filter id="j" height="145.5%" width="116.2%" x="-8.1%" y="-17.8%"><feMorphology in="SourceAlpha" operator="erode" radius="0.5" result="shadowSpreadInner1"/><feGaussianBlur in="shadowSpreadInner1" result="shadowBlurInner1" stdDeviation="2.3"/><feOffset dx="0" dy="2" in="shadowBlurInner1" result="shadowOffsetInner1"/><feComposite in="shadowOffsetInner1" in2="SourceAlpha" k2="-1" k3="1" operator="arithmetic" result="shadowInnerInner1"/><feColorMatrix in="shadowInnerInner1" result="shadowMatrixInner1" type="matrix" values="0 0 0 0 0   0 0 0 0 0   0 0 0 0 0  0 0 0 1 0"/><feGaussianBlur in="SourceAlpha" result="shadowBlurInner2" stdDeviation="1.5"/><feOffset dx="0" dy="0" in="shadowBlurInner2" result="shadowOffsetInner2"/><feComposite in="shadowOffsetInner2" in2="SourceAlpha" k2="-1" k3="1" operator="arithmetic" result="shadowInnerInner2"/><feColorMatrix in="shadowInnerInner2" result="shadowMatrixInner2" type="matrix" values="0 0 0 0 0   0 0 0 0 0   0 0 0 0 0  0 0 0 0.75 0"/><feMerge><feMergeNode in="shadowMatrixInner1"/><feMergeNode in="shadowMatrixInner2"/></feMerge></filter><path id="k" d="m56 39h3.99203s10.290588-4.000096 21.956312-4.000096h18.962118s2.57887.138784 1.995966 2.000096c-.582708 1.86144-4.933614 13.942464-5.988094 17-1.054578 3.0576-2.665992 9.999968-16.966152 9.999968-14.300062 0-18.96202-9.999968-18.96202-9.999968l-4.99016-9.000096-5.000058 9.000096s-4.671366 9.999968-19.000044 9.999968c-14.32858 0-15.943228-6.942368-16.999864-9.999968-1.056734-3.057536-5.416068-15.13856-6.000148-17-.583786-1.861312 2.00018-2.000096 2.00018-2.000096h18.999946c11.688852 0 22.00002 4.000096 22.00002 4.000096z"/><filter id="l" height="137.5%" width="112.2%" x="-6.1%" y="-9.4%"><feOffset dx="0" dy="3" in="SourceAlpha" result="shadowOffsetOuter1"/><feGaussianBlur in="shadowOffsetOuter1" result="shadowBlurOuter1" stdDeviation="1.5"/><feColorMatrix in="shadowBlurOuter1" type="matrix" values="0 0 0 0 0   0 0 0 0 0   0 0 0 0 0  0 0 0 0.5 0"/></filter><filter id="m" height="125%" width="108.2%" x="-4.1%" y="-3.1%"><feGaussianBlur in="SourceAlpha" result="shadowBlurInner1" stdDeviation=".5"/><feOffset dx="0" dy="1" in="shadowBlurInner1" result="shadowOffsetInner1"/><feComposite in="shadowOffsetInner1" in2="SourceAlpha" k2="-1" k3="1" operator="arithmetic" result="shadowInnerInner1"/><feColorMatrix in="shadowInnerInner1" type="matrix" values="0 0 0 0 1   0 0 0 0 1   0 0 0 0 1  0 0 0 0.1 0"/></filter><path id="n" d="m50.999928 43.999992c0 3.025672-2.926616 8.691566-5.999928 11.999988-3.073312 3.308526-5.234416 4.0001-13.000152 4.0001-7.765384 0-11.079904-2.615054-12.9998-6.000098-1.919984-3.385018-4.00004-9.99999-4.00004-9.99999s-1.478312-6.99998 14.999952-6.99998 20.999968 5.76199 20.999968 6.99998zm10.000056 0c0-1.23799 4.517832-6.99998 20.981752-6.99998 16.464008 0 14.987016 6.99998 14.987016 6.99998s-2.078208 6.614972-3.996608 9.99999c-1.918136 3.385044-5.22984 6.000098-12.988536 6.000098-7.75896 0-9.918216-.691574-12.9888-4.0001-3.070672-3.308422-5.994824-8.974316-5.994824-11.999988z"/><filter id="o" height="115.4%" width="104.5%" x="-2.3%" y="-3.8%"><feOffset dx="0" dy="1" in="SourceAlpha" result="shadowOffsetOuter1"/><feGaussianBlur in="shadowOffsetOuter1" result="shadowBlurOuter1" stdDeviation=".5"/><feColorMatrix in="shadowBlurOuter1" type="matrix" values="0 0 0 0 1   0 0 0 0 1   0 0 0 0 1  0 0 0 0.2 0"/></filter><filter id="p" height="130.8%" width="109.1%" x="-4.5%" y="-11.5%"><feGaussianBlur in="SourceAlpha" result="shadowBlurInner1" stdDeviation="3"/><feOffset dx="0" dy="0" in="shadowBlurInner1" result="shadowOffsetInner1"/><feComposite in="shadowOffsetInner1" in2="SourceAlpha" k2="-1" k3="1" operator="arithmetic" result="shadowInnerInner1"/><feColorMatrix in="shadowInnerInner1" type="matrix" values="0 0 0 0 0   0 0 0 0 0   0 0 0 0 0  0 0 0 1 0"/></filter><linearGradient id="q" x1="50%" x2="50%" y1="26.860609%" y2="0%"><stop offset="0" stop-color="#fff" stop-opacity="0"/><stop offset="1" stop-color="#fff" stop-opacity=".65"/></linearGradient><path id="r" d="m48.7462064 46.5096537-31.5848186 1.6412002c-.6744844-1.9330906-1.1327598-3.4551319-1.1327598-3.4551319s-1.353867-6.695638 13.738137-6.695638 19.233303 5.511406 19.233303 6.695638c0 .5297894-.0898271 1.1442085-.2538616 1.8139317zm46.2521823-2.403341-32.8910884 1.7090762c-.0701848-.4030388-.1073563-.7788632-.1073563-1.1196669 0-1.184232 4.141521-6.695638 19.233525-6.695638 12.3331259 0 13.6833835 4.4714756 13.7649197 6.1062287z"/><filter id="s" height="115.8%" width="104.5%" x="-2.3%" y="-3.9%"><feOffset dx="0" dy="2" in="SourceAlpha" result="shadowOffsetOuter1"/><feGaussianBlur in="shadowOffsetOuter1" result="shadowBlurOuter1" stdDeviation=".5"/><feComposite in="shadowBlurOuter1" in2="SourceAlpha" operator="out" result="shadowBlurOuter1"/><feColorMatrix in="shadowBlurOuter1" type="matrix" values="0 0 0 0 0   0 0 0 0 0   0 0 0 0 0  0 0 0 0.25 0"/></filter><filter id="t" height="113.2%" width="103.6%" x="-1.8%" y="-2.6%"><feGaussianBlur in="SourceAlpha" result="shadowBlurInner1" stdDeviation=".5"/><feOffset dx="0" dy="1" in="shadowBlurInner1" result="shadowOffsetInner1"/><feComposite in="shadowOffsetInner1" in2="SourceAlpha" k2="-1" k3="1" operator="arithmetic" result="shadowInnerInner1"/><feColorMatrix in="shadowInnerInner1" type="matrix" values="0 0 0 0 1   0 0 0 0 1   0 0 0 0 1  0 0 0 0.45 0"/></filter></defs><g fill="none" fill-rule="evenodd" transform="translate(-1 -1)"><g><use fill="#ffee40" fill-rule="evenodd" xlink:href="#c"/><use fill="url(#b)" fill-rule="evenodd" xlink:href="#c"/><use fill="#000" filter="url(#d)" xlink:href="#c"/></g><g><use fill="url(#e)" xlink:href="#g"/><use fill="url(#f)" xlink:href="#g"/></g><g><use fill="#000" filter="url(#i)" xlink:href="#h"/><use fill="#a66707" fill-rule="evenodd" xlink:href="#h"/><use fill="#000" filter="url(#j)" xlink:href="#h"/></g><g><use fill="#000" filter="url(#l)" xlink:href="#k"/><use fill="#141414" fill-rule="evenodd" xlink:href="#k"/><use fill="#000" filter="url(#m)" xlink:href="#k"/></g><g><use fill="#000" filter="url(#o)" xlink:href="#n"/><use fill="#353534" fill-rule="evenodd" xlink:href="#n"/><use fill="#000" filter="url(#p)" xlink:href="#n"/></g><g><use fill="#000" filter="url(#s)" xlink:href="#r"/><use fill="none" xlink:href="#r"/><use fill="url(#q)" fill-opacity=".65" fill-rule="evenodd" xlink:href="#r"/><use fill="#000" filter="url(#t)" xlink:href="#r"/></g></g></svg>