<svg height="178" viewBox="0 0 86 178" width="86" xmlns="http://www.w3.org/2000/svg"><g fill="none" opacity=".600614" transform="matrix(-1 0 0 -1 88 178)"><path d="m25.0003459.623h54.7666541c18.9797866 0 .7242352 59-54.7666541 177z" fill="#2b98f0" opacity=".478348" transform="matrix(-1 0 0 1 112.023202 0)"/><path d="m22.9474257 49.0028248h33.4037904c14.7587232 0 26.7230323 12.975213 26.7230323 28.9809494v36.2261868c0 16.005736-11.9643091 28.980949-26.7230323 28.980949h-33.4037904c-14.75862974 0-15.49434823-12.289734-15.49434823-28.295369l-3.16333895-39.2085071c0-16.0056349 3.89905744-26.6842091 18.65768718-26.6842091z" fill="#5cb4fc" opacity=".66" transform="matrix(-.99620673 .08701806 .08701806 .99620673 78.836126 -3.436601)"/></g></svg>