<svg xmlns="http://www.w3.org/2000/svg" viewBox="0 0 24 24">
  <defs>
    <style>
      .cls-1 {
        fill: #3b87bc;
      }

      .cls-2 {
        fill: #fff;
      }
    </style>
  </defs>
  <g id="Group_80" data-name="Group 80" transform="translate(-1159 -549)">
    <circle id="Ellipse_4" data-name="Ellipse 4" class="cls-1" cx="12" cy="12" r="12" transform="translate(1159 549)"/>
    <g id="facebook-logo" transform="translate(1144.923 552)">
      <path id="Path_13" data-name="Path 13" class="cls-2" d="M30.738,0,28.579,0c-2.425,0-3.992,1.739-3.992,4.43V6.472h-2.17a.354.354,0,0,0-.339.367V9.8a.354.354,0,0,0,.339.367h2.17v7.467a.354.354,0,0,0,.339.367h2.832a.354.354,0,0,0,.339-.367V10.166h2.538a.354.354,0,0,0,.339-.367V6.839a.383.383,0,0,0-.1-.26.327.327,0,0,0-.24-.108H28.1V4.741c0-.832.183-1.255,1.186-1.255h1.454a.354.354,0,0,0,.339-.367V.371A.354.354,0,0,0,30.738,0Z"/>
    </g>
  </g>
</svg>
