<svg xmlns="http://www.w3.org/2000/svg" viewBox="0 0 9 18">
  <defs>
    <style>
      .cls-1 {
        fill: #fff;
      }
    </style>
  </defs>
  <g id="facebook-logo" transform="translate(-22.077)">
    <path id="Path_13" data-name="Path 13" class="cls-1" d="M30.738,0,28.579,0c-2.425,0-3.992,1.739-3.992,4.43V6.472h-2.17a.354.354,0,0,0-.339.367V9.8a.354.354,0,0,0,.339.367h2.17v7.467a.354.354,0,0,0,.339.367h2.832a.354.354,0,0,0,.339-.367V10.166h2.538a.354.354,0,0,0,.339-.367V6.839a.383.383,0,0,0-.1-.26.327.327,0,0,0-.24-.108H28.1V4.741c0-.832.183-1.255,1.186-1.255h1.454a.354.354,0,0,0,.339-.367V.371A.354.354,0,0,0,30.738,0Z"/>
  </g>
</svg>
