<svg xmlns="http://www.w3.org/2000/svg" viewBox="0 0 21 18">
  <defs>
    <style>
      .cls-1 {
        fill: #fff;
      }
    </style>
  </defs>
  <g id="heart" transform="translate(0 -38.362)">
    <g id="Group_10" data-name="Group 10" transform="translate(0 38.362)">
      <g id="Group_9" data-name="Group 9" transform="translate(0 0)">
        <path id="Path_11" data-name="Path 11" class="cls-1" d="M19.363,40.13a5.79,5.79,0,0,0-8.284-.048l-.568.573-.568-.573a5.79,5.79,0,0,0-8.237,0,5.906,5.906,0,0,0,0,8.3l7.28,7.339a2.147,2.147,0,0,0,3.05,0l7.233-7.292A5.961,5.961,0,0,0,19.363,40.13Zm-.857,7.536-7.233,7.292a1.073,1.073,0,0,1-1.525,0l-7.28-7.34a4.813,4.813,0,0,1,0-6.767,4.718,4.718,0,0,1,6.712,0l.569.573-.871.879a.547.547,0,0,0,0,.769.536.536,0,0,0,.763,0l2.2-2.221a4.718,4.718,0,0,1,6.75.039A4.864,4.864,0,0,1,18.506,47.666Z" transform="translate(0 -38.362)"/>
      </g>
    </g>
    <g id="Group_12" data-name="Group 12" transform="translate(15.574 40.39)">
      <g id="Group_11" data-name="Group 11" transform="translate(0 0)">
        <path id="Path_12" data-name="Path 12" class="cls-1" d="M383.252,90.993a3.978,3.978,0,0,0-1.144-2.56,3.931,3.931,0,0,0-1.724-1.018.539.539,0,0,0-.664.378.544.544,0,0,0,.375.669,2.851,2.851,0,0,1,1.25.739,2.887,2.887,0,0,1,.83,1.858.541.541,0,0,0,.538.51h.034A.542.542,0,0,0,383.252,90.993Z" transform="translate(-379.701 -87.395)"/>
      </g>
    </g>
  </g>
</svg>
