<svg id="instagram-logo" xmlns="http://www.w3.org/2000/svg" viewBox="0 0 18 18">
  <defs>
    <style>
      .cls-1 {
        fill: #fff;
      }
    </style>
  </defs>
  <path id="Path_15" data-name="Path 15" class="cls-1" d="M13.033,0H4.967A4.973,4.973,0,0,0,0,4.967v8.065A4.973,4.973,0,0,0,4.967,18h8.065A4.973,4.973,0,0,0,18,13.033V4.967A4.973,4.973,0,0,0,13.033,0ZM16.4,13.033a3.374,3.374,0,0,1-3.37,3.37H4.967a3.374,3.374,0,0,1-3.37-3.37V4.967A3.374,3.374,0,0,1,4.967,1.6h8.065a3.374,3.374,0,0,1,3.37,3.37v8.065Z"/>
  <path id="Path_16" data-name="Path 16" class="cls-1" d="M45.606,40.97a4.638,4.638,0,1,0,4.638,4.638A4.643,4.643,0,0,0,45.606,40.97Zm0,7.679a3.041,3.041,0,1,1,3.041-3.041A3.044,3.044,0,0,1,45.606,48.649Z" transform="translate(-36.606 -36.608)"/>
  <path id="Path_17" data-name="Path 17" class="cls-1" d="M120.092,28.251a1.17,1.17,0,1,0,.828.343A1.176,1.176,0,0,0,120.092,28.251Z" transform="translate(-106.26 -25.243)"/>
</svg>
