<svg xmlns="http://www.w3.org/2000/svg" viewBox="0 0 18 18">
  <defs>
    <style>
      .cls-1 {
        fill: #fff;
      }
    </style>
  </defs>
  <g id="linkedin-logo" transform="translate(0 -9.558)">
    <path id="LinkedIn" class="cls-1" d="M18,20.594v6.964H14.142v-6.5c0-1.632-.558-2.746-1.954-2.746a2.123,2.123,0,0,0-1.98,1.477,2.882,2.882,0,0,0-.128.984v6.783H6.221s.052-11.005,0-12.145H10.08v1.722c-.008.013-.018.027-.025.039h.025v-.039a3.809,3.809,0,0,1,3.478-2.007C16.1,15.127,18,16.863,18,20.594ZM2.184,9.558a2.1,2.1,0,1,0-.051,4.2h.026a2.1,2.1,0,1,0,.025-4.2Zm-1.955,18H4.087V15.413H.229Z" transform="translate(0)"/>
  </g>
</svg>
