<svg xmlns="http://www.w3.org/2000/svg" viewBox="0 0 22 19.04">
  <defs>
    <style>
      .cls-1 {
        fill: #fff;
        stroke: #707070;
      }
    </style>
  </defs>
  <g id="medium" transform="translate(0.5 -29.268)">
    <path id="Path_18" data-name="Path 18" class="cls-1" d="M268.443,50.118l-6.468-3.141-.049-14.237a.446.446,0,0,1,.639-.407l6.132,2.978a.451.451,0,0,1,.253.406V49.8A.354.354,0,0,1,268.443,50.118Z" transform="translate(-247.95 -2.353)"/>
    <path id="Path_19" data-name="Path 19" class="cls-1" d="M138.66,44.624l-7-3.4L138.4,30.017a.443.443,0,0,1,.574-.172l6.217,3.02a.452.452,0,0,1,.187.64Z" transform="translate(-124.634)"/>
    <path id="Path_20" data-name="Path 20" class="cls-1" d="M23.907,50.619l-7-3.4L10.491,36.665a.344.344,0,0,1,.44-.493l5.976,2.9Z" transform="translate(-9.881 -5.995)"/>
    <path id="Path_21" data-name="Path 21" class="cls-1" d="M6.519,49.017.2,45.948a.357.357,0,0,1-.2-.322V31.47a.343.343,0,0,1,.491-.312l6.535,3.174V48.7A.354.354,0,0,1,6.519,49.017Z" transform="translate(0 -1.253)"/>
  </g>
</svg>
