<svg xmlns="http://www.w3.org/2000/svg" viewBox="0 0 24 24">
  <defs>
    <style>
      .cls-1 {
        fill: #e5303e;
      }

      .cls-2 {
        fill: #efefef;
      }
    </style>
  </defs>
  <g id="Group_79" data-name="Group 79" transform="translate(-1202 -550)">
    <circle id="Ellipse_1" data-name="Ellipse 1" class="cls-1" cx="12" cy="12" r="12" transform="translate(1202 550)"/>
    <g id="pinterest-logo" transform="translate(1154 554)">
      <g id="Group_54" data-name="Group 54" transform="translate(54 0)">
        <g id="Group_53" data-name="Group 53" transform="translate(0 0)">
          <path id="Path_22" data-name="Path 22" class="cls-2" d="M65.929,4.449c-.421-3.162-3.459-4.772-6.7-4.395a5.9,5.9,0,0,0-5.223,5.52c-.065,1.876.448,3.283,2.169,3.679.745-1.368-.24-1.667-.394-2.658-.631-4.05,4.5-6.816,7.194-3.986,1.863,1.96.635,7.986-2.365,7.359-2.874-.6,1.408-5.395-.886-6.336-1.865-.766-2.855,2.34-1.971,3.884-.519,2.655-1.635,5.155-1.183,8.484,1.465-1.1,1.96-3.215,2.365-5.418.737.465,1.131.946,2.07,1.021C64.468,11.882,66.4,8.017,65.929,4.449Z" transform="translate(-54 0)"/>
        </g>
      </g>
    </g>
  </g>
</svg>
