<svg xmlns="http://www.w3.org/2000/svg" viewBox="0 0 14.003 18">
  <defs>
    <style>
      .cls-1 {
        fill: #fff;
      }
    </style>
  </defs>
  <g id="pinterest-logo" transform="translate(-54 0)">
    <g id="Group_54" data-name="Group 54" transform="translate(54 0)">
      <g id="Group_53" data-name="Group 53" transform="translate(0 0)">
        <path id="Path_22" data-name="Path 22" class="cls-1" d="M67.921,5C67.429,1.448,63.884-.363,60.1.061a6.755,6.755,0,0,0-6.1,6.21c-.075,2.11.523,3.693,2.531,4.139.87-1.539-.28-1.875-.46-2.99-.737-4.556,5.256-7.668,8.395-4.484,2.174,2.2.741,8.984-2.76,8.279-3.354-.673,1.642-6.069-1.034-7.128-2.176-.862-3.331,2.633-2.3,4.37-.605,2.987-1.908,5.8-1.38,9.544,1.71-1.242,2.287-3.617,2.76-6.1a4.884,4.884,0,0,0,2.415,1.149C66.215,13.367,68.475,9.019,67.921,5Z" transform="translate(-54 0)"/>
      </g>
    </g>
  </g>
</svg>
