<svg xmlns="http://www.w3.org/2000/svg" viewBox="0 0 25 18">
  <defs>
    <style>
      .cls-1 {
        fill: #fff;
      }
    </style>
  </defs>
  <g id="share" transform="translate(0 -13.556)">
    <g id="Group_8" data-name="Group 8" transform="translate(0 13.556)">
      <path id="Path_9" data-name="Path 9" class="cls-1" d="M31.358,18.164l-.464-.345c-.464-.345-.929-.69-1.4-1.028-.493-.356-.989-.735-1.468-1.1-.554-.424-1.127-.862-1.708-1.273-.078-.055-.158-.118-.241-.183a2.471,2.471,0,0,0-1.683-.67,1.95,1.95,0,0,0-1.6,1.843v2.1h-.078c-1.962,0-11.714.518-11.714,10.753a.61.61,0,0,0,.5.592.62.62,0,0,0,.1.008.585.585,0,0,0,.548-.4c.072-.217,1.792-5.306,9.517-5.306.388,0,.837.013,1.124.039v1.961a2.076,2.076,0,0,0,1.064,1.667,1.42,1.42,0,0,0,.7.188,2.352,2.352,0,0,0,1.416-.671c.1-.08.2-.157.29-.217.342-.231.685-.48,1.011-.72.165-.122.333-.244.5-.362.9-.649,1.812-1.331,2.689-1.99l.25-.188c.114-.085.23-.169.345-.253.1-.07.193-.14.27-.2a2.64,2.64,0,0,0,1.506-2.129C32.841,19.22,32.15,18.728,31.358,18.164Zm-.67,3.249c-.092.068-.185.136-.278.2-.121.088-.242.176-.361.265l-.25.188c-.872.656-1.773,1.334-2.667,1.975-.169.121-.337.246-.506.37-.317.233-.644.475-.967.691-.123.082-.246.182-.364.279-.217.176-.514.418-.692.418a.441.441,0,0,1-.171-.031c-.234-.139-.482-.405-.482-.62v-2.52a.536.536,0,0,0-.454-.6c-.62-.056-1.2-.084-1.783-.084-5.1,0-7.857,2.068-9.291,3.8a7.952,7.952,0,0,1,4.18-5.6,13.768,13.768,0,0,1,6.187-1.432,2.582,2.582,0,0,0,.5-.045c.012,0,.027-.056.04-.056h.194c.318,0,.432-.155.432-.487V15.406a.778.778,0,0,1,.557-.645,1.638,1.638,0,0,1,.846.436c.1.077.211.151.3.216.564.4,1.137.831,1.682,1.248.486.371.992.756,1.5,1.121.464.335.928.677,1.387,1.019l.475.352c.841.6.99.768.99,1.126C31.69,20.662,31.387,20.934,30.688,21.412Z" transform="translate(-7.841 -13.556)"/>
      <path id="Path_10" data-name="Path 10" class="cls-1" d="M17.744,37.7a2.35,2.35,0,0,0,2.393-2.571V33.6a.576.576,0,1,0-1.151,0v1.529c0,.872-.426,1.367-1.242,1.367H2.815a1.527,1.527,0,0,1-1.665-1.367V25.166a1.742,1.742,0,0,1,1.665-1.611H8.486a.6.6,0,0,0,0-1.2H2.815A2.915,2.915,0,0,0,0,25.166v9.966A2.713,2.713,0,0,0,2.815,37.7Z" transform="translate(0 -19.703)"/>
    </g>
  </g>
</svg>
