<svg xmlns="http://www.w3.org/2000/svg" viewBox="0 0 22 18">
  <defs>
    <style>
      .cls-1 {
        fill: #fff;
      }
    </style>
  </defs>
  <g id="twitter-logo-silhouette" transform="translate(-0.001 -57.441)">
    <g id="Group_52" data-name="Group 52" transform="translate(0.001 57.441)">
      <path id="Path_14" data-name="Path 14" class="cls-1" d="M22,59.571a8.962,8.962,0,0,1-2.591.716,4.559,4.559,0,0,0,1.984-2.513,9.059,9.059,0,0,1-2.868,1.1,4.508,4.508,0,0,0-7.807,3.109,4.59,4.59,0,0,0,.117,1.036,12.783,12.783,0,0,1-9.3-4.75,4.573,4.573,0,0,0,1.4,6.068,4.489,4.489,0,0,1-2.044-.571v.057a4.542,4.542,0,0,0,3.62,4.457,4.54,4.54,0,0,1-1.189.159,4.3,4.3,0,0,1-.85-.084,4.52,4.52,0,0,0,4.215,3.157,9.013,9.013,0,0,1-5.6,1.943A9.524,9.524,0,0,1,0,73.4,12.814,12.814,0,0,0,19.759,62.508l-.015-.589A9.048,9.048,0,0,0,22,59.571Z" transform="translate(-0.001 -57.441)"/>
    </g>
  </g>
</svg>
