<svg xmlns="http://www.w3.org/2000/svg" viewBox="0 0 24 24">
  <defs>
    <style>
      .cls-1 {
        fill: #1bd4e5;
      }

      .cls-2 {
        fill: #fff;
      }
    </style>
  </defs>
  <g id="Group_77" data-name="Group 77" transform="translate(-1299 -557)">
    <circle id="Ellipse_3" data-name="Ellipse 3" class="cls-1" cx="12" cy="12" r="12" transform="translate(1299 557)"/>
    <g id="twitter-logo-silhouette" transform="translate(1302.999 503.559)">
      <g id="Group_52" data-name="Group 52" transform="translate(0.001 57.441)">
        <path id="Path_14" data-name="Path 14" class="cls-2" d="M16,59.334a5.628,5.628,0,0,1-1.885.636,4.02,4.02,0,0,0,1.443-2.234,5.927,5.927,0,0,1-2.086.981,3.026,3.026,0,0,0-2.4-1.276c-1.813,0-3.282,1.809-3.282,4.04a4.95,4.95,0,0,0,.085.921,8.886,8.886,0,0,1-6.765-4.222A4.739,4.739,0,0,0,.672,60.21a4.349,4.349,0,0,0,1.46,3.363,2.831,2.831,0,0,1-1.487-.507v.05a3.928,3.928,0,0,0,2.633,3.962,2.743,2.743,0,0,1-.865.142,2.582,2.582,0,0,1-.618-.075A3.453,3.453,0,0,0,4.86,69.951,5.853,5.853,0,0,1,.784,71.678,5.683,5.683,0,0,1,0,71.623a8.071,8.071,0,0,0,5.031,1.818c6.038,0,9.338-6.157,9.338-11.5l-.011-.523A7.579,7.579,0,0,0,16,59.334Z" transform="translate(-0.001 -57.441)"/>
      </g>
    </g>
  </g>
</svg>
