<svg xmlns="http://www.w3.org/2000/svg" viewBox="0 0 25 18">
  <defs>
    <style>
      .cls-1 {
        fill: #fff;
      }
    </style>
  </defs>
  <g id="youtube" transform="translate(0 -45.917)">
    <path id="XMLID_823_" class="cls-1" d="M24.026,47.462c-.9-1.1-2.569-1.545-5.75-1.545H6.725c-3.255,0-4.949.477-5.848,1.645C0,48.7,0,50.38,0,52.7v4.428c0,4.5,1.04,6.786,6.725,6.786h11.55c2.759,0,4.288-.4,5.278-1.364C24.567,61.56,25,59.939,25,57.131V52.7C25,50.253,24.932,48.565,24.026,47.462ZM16.05,55.528l-5.245,2.8a.791.791,0,0,1-.791-.025.829.829,0,0,1-.389-.706V52.011a.829.829,0,0,1,.388-.705.791.791,0,0,1,.79-.027l5.245,2.786a.834.834,0,0,1,0,1.463Z"/>
  </g>
</svg>
